<svg width="250" height="250" viewBox="0 0 250 250" fill="none" xmlns="http://www.w3.org/2000/svg">
<path d="M234.807 60.5797L62.3791 237.906C60.6147 239.721 58.695 241.274 56.6766 242.595C43.7614 251.057 26.4425 249.489 15.1647 237.892C8.65768 231.201 5.39697 222.405 5.39697 213.623C5.39697 204.856 8.65768 196.06 15.1647 189.355L187.607 12.0425C200.649 -1.36908 221.779 -1.36908 234.807 12.0425C241.328 18.7484 244.589 27.5296 244.589 36.3111C244.589 45.0925 241.328 53.8884 234.807 60.5797Z" fill="#E78244"/>
<path d="M234.807 60.5796L233.818 59.5636L61.3767 236.876C59.6829 238.603 57.8618 240.112 55.9281 241.39C50.7056 244.801 44.7491 246.513 38.7784 246.513C30.5777 246.499 22.4194 243.306 16.1665 236.861C9.92767 230.446 6.7941 222.042 6.7941 213.623C6.7941 205.219 9.92767 196.815 16.1665 190.385L188.594 13.0584C194.847 6.64292 203.02 3.43505 211.192 3.43505C219.393 3.43505 227.566 6.64292 233.818 13.0584C240.057 19.4885 243.177 27.8924 243.177 36.3109H244.461L243.177 36.2674V36.3109H244.461L243.177 36.2674C243.177 36.2674 243.177 36.3836 243.205 36.5723L244.588 36.3109H243.177H244.461L243.177 36.2384V36.3109H244.461L243.177 36.2384V36.3255C243.177 44.7441 240.057 53.1335 233.818 59.5636L234.807 60.5796L235.809 61.6102C242.598 54.6287 246 45.4698 246 36.3255H244.701L246 36.3835V36.3255H244.701L246 36.3835V36.3109C246 36.2238 245.971 36.1368 245.971 36.0497L244.602 36.3109H246C246 36.2674 246 36.1658 245.971 36.0497L244.602 36.3109H246H244.701L246 36.34V36.3109H244.701L246 36.34V36.3109C246 27.1521 242.598 17.9934 235.809 11.0264C229.019 4.03027 220.099 0.532188 211.192 0.546702C202.3 0.532188 193.393 4.03027 186.618 11.0264L14.1763 188.338C7.38704 195.32 3.99951 204.479 3.99951 213.623C3.99951 222.782 7.38704 231.941 14.1763 238.922C20.9656 245.889 29.8861 249.402 38.7784 249.402C45.2572 249.402 51.7643 247.544 57.4385 243.828C59.5417 242.449 61.5319 240.809 63.3668 238.922L235.809 61.6102L234.807 60.5796" fill="#C26C38"/>
<path d="M204.544 51.9144C189.738 51.9144 177.726 47.9955 177.726 43.1475C177.726 38.2996 189.738 34.3806 204.544 34.3806C219.365 34.3806 231.377 38.2996 231.377 43.1475C231.377 47.9955 219.365 51.9144 204.544 51.9144Z" fill="#F9B17D"/>
<path d="M167.351 90.175C152.531 90.175 140.519 86.256 140.519 81.408C140.519 76.5746 152.531 72.6266 167.351 72.6266C182.172 72.6266 194.184 76.5746 194.184 81.408C194.184 86.256 182.172 90.175 167.351 90.175Z" fill="#F9B17D"/>
<path d="M133.716 124.749C118.909 124.749 106.897 120.845 106.897 115.982C106.897 111.149 118.909 107.215 133.716 107.215C148.536 107.215 160.548 111.149 160.548 115.982C160.548 120.845 148.536 124.749 133.716 124.749Z" fill="#F9B17D"/>
<path d="M95.9163 163.663C81.0956 163.663 69.0698 159.715 69.0698 154.867C69.0698 150.034 81.0956 146.1 95.9163 146.1C110.723 146.1 122.735 150.034 122.735 154.867C122.735 159.715 110.723 163.663 95.9163 163.663Z" fill="#F9B17D"/>
<path d="M51.2704 209.559C36.4497 209.559 24.438 205.625 24.438 200.792C24.438 195.929 36.4497 192.01 51.2704 192.01C66.0911 192.01 78.0887 195.929 78.0887 200.792C78.0887 205.625 66.0911 209.559 51.2704 209.559Z" fill="#F9B17D"/>
<path d="M186.336 49.5772C178.39 55.6153 168.834 63.6275 158.276 73.1492C161.113 72.8299 164.162 72.6266 167.352 72.6266C175.524 72.6266 182.864 73.8313 187.776 75.7182C195.229 66.3707 201.101 58.257 204.982 51.914C204.841 51.914 204.7 51.914 204.545 51.914C197.515 51.914 191.121 51.0432 186.336 49.5772ZM144.415 85.9657C137.132 92.8457 129.524 100.277 121.747 108.144C125.374 107.549 129.425 107.215 133.716 107.215H133.73C143.653 107.215 152.32 108.986 156.963 111.584C163.936 103.964 170.401 96.6049 176.287 89.6814C173.492 90.0153 170.471 90.175 167.352 90.175C157.627 90.175 149.115 88.4913 144.415 85.9657ZM110.074 120.133C101.252 129.307 92.9664 138.277 85.3867 146.797C88.6331 146.347 92.1759 146.1 95.9164 146.1C106.009 146.1 114.816 147.929 119.39 150.629C124.443 145.65 129.58 140.468 134.789 135.113C138.473 131.339 142.072 127.565 145.558 123.864C142.001 124.43 137.979 124.749 133.716 124.749C123.497 124.749 114.591 122.877 110.074 120.133ZM73.9677 159.933C69.2956 165.419 65.0189 170.616 61.1796 175.493C59.4576 180.979 57.9332 186.567 56.7334 192.185C62.2241 192.562 67.0796 193.476 70.7918 194.768C81.0957 186.422 93.3757 175.565 106.7 162.908C103.397 163.387 99.7415 163.663 95.9164 163.663C86.8405 163.663 78.8232 162.183 73.9677 159.933Z" fill="#EB9457"/>
<path d="M208.102 37.153C204.502 37.153 196.796 41.6525 186.336 49.5776C191.121 51.0435 197.515 51.9144 204.545 51.9144C204.7 51.9144 204.841 51.9144 204.982 51.9144C209.598 44.4248 211.433 39.4027 209.824 37.748C209.428 37.3416 208.864 37.153 208.102 37.153" fill="#FABE90"/>
<path d="M167.351 72.6266C164.161 72.6266 161.113 72.8299 158.276 73.1492C153.815 77.1698 149.185 81.4516 144.415 85.9657C149.115 88.4913 157.626 90.175 167.351 90.175C170.471 90.175 173.491 90.0153 176.286 89.6814C180.436 84.79 184.289 80.1162 187.776 75.7182C182.864 73.8313 175.524 72.6266 167.351 72.6266Z" fill="#FABE90"/>
<path d="M133.73 107.215H133.716C129.425 107.215 125.374 107.549 121.746 108.144C119.558 110.351 117.356 112.6 115.126 114.894C113.432 116.65 111.739 118.392 110.073 120.134C114.59 122.877 123.497 124.749 133.716 124.749C137.978 124.749 142.001 124.43 145.558 123.864C149.496 119.713 153.293 115.62 156.963 111.584C152.319 108.986 143.653 107.215 133.73 107.215" fill="#FABE90"/>
<path d="M95.916 146.1C92.1755 146.1 88.6327 146.347 85.3863 146.797C81.3918 151.311 77.5525 155.709 73.9673 159.933C78.8228 162.183 86.8401 163.663 95.916 163.663C99.7411 163.663 103.397 163.388 106.7 162.909C110.836 158.975 115.084 154.867 119.389 150.629C114.816 147.929 106.008 146.1 95.916 146.1" fill="#FABE90"/>
<path d="M56.7324 192.185C55.6738 197.134 54.8411 202.084 54.3188 207.033C58.9344 203.985 64.4956 199.849 70.7908 194.768C67.0786 193.477 62.2231 192.562 56.7324 192.185" fill="#FABE90"/>
<path d="M87.7289 116.795L16.1663 190.385C9.92751 196.815 6.79395 205.219 6.79395 213.623C6.79395 222.042 9.92751 230.445 16.1663 236.861C22.4192 243.306 30.5775 246.499 38.7783 246.513C44.7489 246.513 50.7054 244.801 55.9279 241.39C56.0408 241.317 56.1679 241.215 56.2808 241.143C53.6272 231.128 53.105 220.401 54.0649 209.501C53.1474 209.544 52.2157 209.559 51.27 209.559C50.9312 209.559 50.5785 209.544 50.2398 209.544C46.4993 211.707 43.6479 212.839 41.813 212.839C41.0649 212.839 40.4863 212.65 40.1052 212.259C39.4559 211.605 39.3713 210.401 39.7807 208.717C30.7048 207.309 24.4376 204.275 24.4376 200.792C24.4376 196.205 35.179 192.446 48.8705 192.04C52.1875 187.177 56.3374 181.618 61.1788 175.493C68.4198 152.458 79.4153 131.15 87.7289 116.795" fill="#EB9457"/>
<path d="M90.8066 111.584L15.1647 189.354C8.65768 196.06 5.39697 204.856 5.39697 213.623C5.39697 222.404 8.65768 231.2 15.1647 237.892C21.6858 244.598 30.2392 247.95 38.7788 247.95C45.0175 247.95 51.2423 246.165 56.6766 242.594C56.5495 242.115 56.4083 241.622 56.2813 241.143C56.1683 241.216 56.0413 241.317 55.9284 241.39C50.7059 244.801 44.7494 246.513 38.7788 246.513C30.578 246.499 22.4197 243.306 16.1668 236.861C9.92797 230.446 6.7944 222.042 6.7944 213.623C6.7944 205.219 9.92797 196.815 16.1668 190.385L87.7294 116.795C88.8021 114.937 89.8326 113.181 90.8066 111.584" fill="#CC804B"/>
<path d="M48.8709 192.04C35.1794 192.446 24.438 196.205 24.438 200.792C24.438 204.275 30.7052 207.309 39.7811 208.717C40.6562 205.146 43.8318 199.413 48.8709 192.04V192.04ZM54.3194 207.033C52.8656 207.991 51.4964 208.819 50.2402 209.544C50.5789 209.544 50.9316 209.559 51.2704 209.559C52.2161 209.559 53.1478 209.544 54.0653 209.501C54.1358 208.688 54.2206 207.861 54.3194 207.033" fill="#FABE90"/>
<path d="M61.1795 175.493C56.3381 181.618 52.1882 187.177 48.8711 192.04C49.6475 192.025 50.452 192.011 51.2707 192.011C53.148 192.011 54.969 192.069 56.7333 192.185C57.9331 186.568 59.4575 180.98 61.1795 175.493ZM39.7814 208.717C39.372 210.401 39.4566 211.606 40.1058 212.259C40.4869 212.651 41.0656 212.839 41.8137 212.839C43.6486 212.839 46.5 211.707 50.2405 209.545C46.5141 209.501 42.9713 209.211 39.7814 208.717" fill="#EEA46B"/>
<path d="M51.2701 192.011C50.4514 192.011 49.6469 192.025 48.8705 192.04C43.8315 199.413 40.6559 205.146 39.7808 208.717C42.9707 209.211 46.5135 209.501 50.2399 209.544C51.4961 208.819 52.8653 207.991 54.3191 207.033C54.8414 202.084 55.6741 197.134 56.7327 192.185C54.9684 192.069 53.1474 192.011 51.2701 192.011" fill="#FBCAA2"/>
</svg>
