<svg width="250" height="250" viewBox="0 0 250 250" fill="none" xmlns="http://www.w3.org/2000/svg">
<path d="M249.266 149.667C249.266 150.004 249.266 150.356 249.249 150.694C248.976 159.276 245.317 167.447 238.903 174.855C228.144 187.31 209.631 197.667 186.456 204.357C168.328 209.594 147.341 212.587 124.974 212.587C74.2973 212.587 30.708 197.242 11.3581 175.207C4.74185 167.696 0.968697 159.408 0.691432 150.694C0.673827 150.356 0.673828 150.004 0.673828 149.667C0.673828 149.388 0.673819 149.124 0.682621 148.845C0.811718 143.813 2.10268 138.899 4.45577 134.219C18.0667 106.933 66.861 86.7613 124.974 86.7613C193.083 86.7613 248.404 114.488 249.256 148.845C249.266 149.124 249.266 149.388 249.266 149.667" fill="#EE8B4A"/>
<path d="M249.266 149.666C249.266 150.004 249.266 150.356 249.249 150.693C249.04 161.784 245.367 169.515 238.903 174.855C219.637 190.801 175.614 185.682 124.606 185.682C105.32 185.682 87.0867 186.43 70.8469 186.474C44.4568 186.547 23.2893 184.816 11.3581 175.207C4.69197 169.852 0.895346 162.019 0.691432 150.693C0.673827 150.356 0.673828 150.004 0.673828 149.666C0.673828 149.388 0.673819 149.124 0.682621 148.845C0.755971 143.666 1.54963 138.18 3.01664 132.546C14.2231 89.1521 64.5637 36.9999 124.974 36.9999C193.21 36.9999 248.611 103.588 249.256 148.845C249.266 149.124 249.266 149.388 249.266 149.666" fill="#BA6531"/>
<path d="M77.605 131.783C77.605 131.783 77.7385 131.329 78.0392 130.493C78.3488 129.642 78.7918 128.409 79.4696 126.884C80.1209 125.343 80.9776 123.495 82.0486 121.441C83.1283 119.358 84.3826 117.04 85.9244 114.605C86.6711 113.373 87.5014 112.126 88.3508 110.835C89.2369 109.558 90.1465 108.223 91.147 106.918C93.1025 104.233 95.3367 101.563 97.7353 98.849C98.9808 97.5287 100.198 96.1498 101.541 94.8735C102.21 94.1987 102.874 93.5386 103.548 92.8784C104.222 92.2329 104.932 91.6021 105.643 90.9713C107.036 89.6803 108.513 88.4333 109.998 87.2157C111.493 85.998 113.067 84.8537 114.594 83.6655C116.204 82.5799 117.776 81.4357 119.4 80.4234C120.226 79.8953 121.052 79.4112 121.865 78.8831L123.093 78.1349L124.351 77.4454C126.016 76.5212 127.664 75.5823 129.367 74.8194C130.206 74.4086 131.05 74.0125 131.877 73.6164C132.702 73.191 133.573 72.883 134.403 72.5455C136.083 71.8414 137.716 71.1226 139.378 70.5798C141.039 70.0224 142.626 69.4062 144.241 69.0101C145.836 68.57 147.373 68.0711 148.896 67.7484C150.417 67.411 151.89 67.103 153.301 66.8096C154.723 66.5162 156.089 66.3401 157.381 66.1347C158.681 65.944 159.907 65.7533 161.079 65.68C162.243 65.5919 163.327 65.4746 164.338 65.4159C165.343 65.3279 166.261 65.2692 167.097 65.2692C168.771 65.2546 170.087 65.2691 170.971 65.2545C171.868 65.2691 172.343 65.2692 172.343 65.2692C172.343 65.2692 171.875 65.3866 171.005 65.6066C170.143 65.7973 168.868 66.1053 167.248 66.4281C166.441 66.5748 165.555 66.8242 164.596 67.0882C163.636 67.3523 162.593 67.5871 161.486 67.8659C160.369 68.1299 159.207 68.5113 157.985 68.878C156.768 69.2888 155.461 69.5968 154.138 70.0516C152.817 70.5064 151.438 70.9905 150.017 71.4893C148.604 71.988 147.166 72.5896 145.68 73.1471C144.185 73.7046 142.705 74.4086 141.169 75.0834C140.421 75.4209 139.632 75.7143 138.87 76.1104C138.105 76.4918 137.334 76.8586 136.554 77.24C134.986 77.9882 133.444 78.8244 131.886 79.6753C130.304 80.4822 128.777 81.4357 127.206 82.3599L126.027 83.0494L124.882 83.7829C124.111 84.2817 123.341 84.7804 122.566 85.2792C121.024 86.2767 119.54 87.3624 118.026 88.404C115.055 90.5899 112.13 92.8491 109.375 95.2256C106.584 97.5582 103.982 100.023 101.472 102.443C99.0263 104.893 96.6556 107.284 94.5372 109.69C92.3925 112.067 90.4267 114.37 88.6501 116.527C87.7611 117.627 86.9381 118.698 86.1547 119.695C85.3479 120.708 84.632 121.676 83.941 122.6C82.6016 124.448 81.4031 126.062 80.4803 127.441C79.5576 128.805 78.8138 129.891 78.3385 130.639C77.8602 131.387 77.605 131.783 77.605 131.783" fill="#F9A97B"/>
<path d="M172.343 131.783C172.343 131.783 172.085 131.387 171.604 130.639C171.134 129.891 170.395 128.805 169.469 127.441C168.546 126.062 167.347 124.448 166.007 122.6C165.316 121.676 164.596 120.708 163.793 119.695C163.009 118.698 162.178 117.627 161.301 116.527C159.529 114.37 157.556 112.067 155.411 109.69C153.29 107.284 150.925 104.893 148.475 102.414C145.965 100.023 143.364 97.5435 140.574 95.2256C137.82 92.8491 134.893 90.5899 131.927 88.404C130.404 87.3624 128.918 86.2767 127.372 85.2792C126.608 84.7804 125.842 84.2817 125.066 83.7829L123.917 83.0494L122.751 82.3599C121.177 81.4357 119.65 80.4822 118.067 79.6753C116.503 78.8244 114.958 77.9882 113.394 77.24C112.609 76.8586 111.844 76.4918 111.078 76.0957C110.321 75.7143 109.527 75.4209 108.77 75.0834C107.243 74.4086 105.763 73.7046 104.259 73.1471C102.773 72.5896 101.343 71.988 99.9226 71.4893C98.5011 70.9905 97.1265 70.5064 95.8062 70.0516C94.4859 69.5968 93.1817 69.2888 91.9685 68.878C90.7318 68.5113 89.5773 68.1299 88.4711 67.8659C87.3548 67.5871 86.3117 67.3523 85.3523 67.0882C84.3973 66.8242 83.5068 66.5748 82.6941 66.4281C81.0847 66.1053 79.8158 65.7973 78.9385 65.6066C78.0715 65.3866 77.605 65.2692 77.605 65.2692C77.605 65.2692 78.0803 65.2691 78.9752 65.2545C79.8657 65.2691 81.1713 65.2546 82.8466 65.2692C83.6857 65.2692 84.6144 65.3279 85.6149 65.4159C86.6154 65.4746 87.7039 65.5919 88.8672 65.68C90.0394 65.7533 91.2614 65.944 92.5582 66.1347C93.8595 66.3401 95.2341 66.5162 96.6468 66.8096C98.0537 67.103 99.5251 67.411 101.048 67.7484C102.571 68.0711 104.107 68.57 105.707 69.0101C107.322 69.4062 108.91 70.0224 110.566 70.5798C112.231 71.1226 113.868 71.8267 115.543 72.5455C116.384 72.883 117.247 73.191 118.067 73.6164C118.903 74.0125 119.733 74.4086 120.583 74.8194C122.284 75.5823 123.921 76.5212 125.601 77.4454L126.851 78.1349L128.083 78.8831C128.905 79.3965 129.722 79.8953 130.539 80.4234C132.172 81.4357 133.745 82.5799 135.345 83.6655C136.877 84.8537 138.455 85.998 139.94 87.2157C141.435 88.4333 142.91 89.6657 144.304 90.9713C145.005 91.6021 145.726 92.2329 146.409 92.8784C147.074 93.5386 147.741 94.1987 148.402 94.8735C149.75 96.1498 150.967 97.5287 152.213 98.849C154.603 101.563 156.844 104.233 158.801 106.918C159.802 108.223 160.716 109.558 161.588 110.835C162.447 112.126 163.267 113.373 164.028 114.605C165.566 117.04 166.82 119.358 167.895 121.441C168.975 123.495 169.818 125.343 170.483 126.884C171.156 128.409 171.591 129.642 171.905 130.493C172.214 131.329 172.343 131.783 172.343 131.783" fill="#F9A97B"/>
<path d="M211.878 93.744C206.792 93.744 204.946 99.2746 204.412 104.747C204.024 108.751 204.357 112.771 204.795 116.732C205.998 127.779 207.015 139.265 202.005 149.593C199.835 154.097 194.437 160.64 195.305 165.98C196.256 171.848 203.702 172.449 208.508 172.699C209.562 172.743 210.609 172.772 211.656 172.772C225.608 172.772 238.774 167.916 241.041 152.498C243.316 137.006 239.836 120.766 230.442 108.194C226.484 102.898 219.895 94.6095 212.745 93.8027C212.449 93.7587 212.154 93.744 211.878 93.744" fill="#C5783F"/>
<path d="M11.3584 175.207C30.7083 197.242 74.2976 212.587 124.974 212.587C147.342 212.587 168.329 209.594 186.457 204.357C175.65 206.059 165.257 206.836 155.287 206.836C122.474 206.836 94.2622 198.357 70.8472 186.474C70.2751 186.474 69.7029 186.474 69.1396 186.474C43.5344 186.474 23.0314 184.611 11.3584 175.207" fill="#F29D5E"/>
<path d="M3.01664 132.546C1.54963 138.18 0.755971 143.667 0.682621 148.845C0.673819 149.124 0.673828 149.388 0.673828 149.667C0.673828 150.004 0.673827 150.356 0.691432 150.693C0.895346 162.019 4.69197 169.853 11.3581 175.207C23.0311 184.611 43.534 186.474 69.1393 186.474C69.7026 186.474 70.2747 186.474 70.8469 186.474C40.6088 171.1 18.3616 150.048 4.45577 134.219C3.96726 133.647 3.48315 133.104 3.01664 132.546Z" fill="#C5783F"/>
</svg>
