<svg width="250" height="250" viewBox="0 0 250 250" fill="none" xmlns="http://www.w3.org/2000/svg">
<path d="M233.598 121.247L202.545 203.425H47.4496L30.885 159.616L28.6117 153.585L16.4008 121.247H233.598Z" fill="#F59653"/>
<path d="M151.544 203.433H98.4426L87.8043 121.247H162.179L151.544 203.433" fill="#EE8B4A"/>
<path d="M32.5698 164.052L47.4496 203.425H98.4427L97.5207 196.299C79.5281 188.113 63.0773 178.258 48.8968 168.525C43.1108 167.634 37.6315 166.102 32.5698 164.052" fill="#F7A667"/>
<path d="M97.521 196.299L98.443 203.425H114.767C108.882 201.252 103.13 198.857 97.521 196.299Z" fill="#F29D5E"/>
<path d="M188.839 72.5197C185.098 72.5197 181.448 72.7793 177.89 73.2809C168.234 57.1812 146.984 46 122.301 46C97.8924 46 76.8372 56.9304 67.0177 72.744C65.0895 72.5935 63.1318 72.5197 61.1461 72.5197C27.3783 72.5197 0 93.4349 0 119.251C0 145.067 27.3783 165.98 61.1505 165.98C75.232 165.98 89.5733 162.335 101.334 154.447C108.373 149.724 113.573 140.734 122.065 138.44C136.734 134.486 142.526 151.136 153.019 157.053C163.877 163.171 176.423 165.98 188.839 165.98C222.614 165.98 250 145.067 250 119.251C250 93.4349 222.614 72.5197 188.839 72.5197Z" fill="#C56548"/>
<path d="M188.839 75.9999C185.098 75.9999 181.448 76.2684 177.89 76.7597C168.234 60.6614 146.984 49.4876 122.301 49.4876C97.8924 49.4876 76.8268 60.4194 67.0177 76.2212C65.0895 76.0751 63.1318 75.9999 61.1461 75.9999C27.3783 75.9999 0 96.9239 0 122.731C0 148.546 27.3783 169.453 61.1461 169.453C75.2321 169.453 89.5689 165.814 101.334 157.927C108.373 153.196 113.573 144.211 122.056 141.929C136.734 137.968 142.526 154.613 153.01 160.526C163.877 166.649 176.423 169.453 188.839 169.453C222.614 169.453 249.99 148.546 249.99 122.731C249.99 96.9239 222.614 75.9999 188.839 75.9999" fill="#C6764A"/>
<path d="M58.3298 91.2912C35.1723 91.2912 16.4008 104.701 16.4008 121.247C16.4008 137.799 35.1723 151.21 58.3298 151.21C81.4947 151.21 63.6363 137.792 63.6363 121.247C63.6363 104.701 81.4947 91.2912 58.3298 91.2912Z" fill="#CE8A5C"/>
<path d="M178.803 140.296C178.803 142.653 176.878 144.583 174.516 144.583C172.155 144.583 170.229 142.653 170.229 140.296C170.229 137.929 172.155 136.009 174.516 136.009C176.878 136.009 178.803 137.929 178.803 140.296Z" fill="#B06A42"/>
<path d="M160.181 91.2913C160.181 93.6591 158.267 95.5696 155.898 95.5696C153.53 95.5696 151.611 93.6591 151.611 91.2913C151.611 88.9175 153.53 86.9952 155.898 86.9952C158.267 86.9952 160.181 88.9175 160.181 91.2913Z" fill="#B06A42"/>
<path d="M114.516 110.277C114.516 112.655 112.6 114.564 110.224 114.564C107.858 114.564 105.937 112.655 105.937 110.277C105.937 107.912 107.858 105.991 110.224 105.991C112.6 105.991 114.516 107.912 114.516 110.277Z" fill="#B06A42"/>
<path d="M84.8732 144.583C84.8732 146.94 82.9524 148.87 80.586 148.87C78.2197 148.87 76.2988 146.94 76.2988 144.583C76.2988 142.209 78.2197 140.296 80.586 140.296C82.9524 140.296 84.8732 142.209 84.8732 144.583Z" fill="#B06A42"/>
<path d="M56.6997 84.8428C56.6997 87.2003 54.7818 89.1299 52.414 89.1299C50.0432 89.1299 48.1268 87.2003 48.1268 84.8428C48.1268 82.4764 50.0432 80.5557 52.414 80.5557C54.7818 80.5557 56.6997 82.4764 56.6997 84.8428Z" fill="#B06A42"/>
<path d="M120.88 67.1942C120.88 69.5679 118.964 71.4813 116.595 71.4813C114.233 71.4813 112.307 69.5679 112.307 67.1942C112.307 64.8367 114.233 62.9263 116.595 62.9263C118.964 62.9263 120.88 64.8367 120.88 67.1942Z" fill="#B06A42"/>
</svg>
