<svg width="250" height="250" viewBox="0 0 250 250" fill="none" xmlns="http://www.w3.org/2000/svg">
<path d="M248 154.339H14.9502L89.8567 67.2583L108.59 77.5696L241.305 150.643L248 154.339Z" fill="#EE8B4A"/>
<path d="M14.9502 209.946H248V154.339H14.9502V209.946Z" fill="#FAB987"/>
<path d="M14.9502 191.399H248V172.869H14.9502V191.399Z" fill="#DD8048"/>
<path d="M100.781 61.8242C100.781 73.8231 92.3967 83.5776 82.0477 83.5776C71.709 83.5776 63.3291 73.8231 63.3291 61.8242C63.3291 49.7915 71.709 40.054 82.0477 40.054C92.3967 40.054 100.781 49.7915 100.781 61.8242Z" fill="#C67240"/>
<path d="M82.048 83.5774C82.048 95.6101 73.6681 105.348 63.3294 105.348C52.9863 105.348 44.5962 95.6101 44.5962 83.5774C44.5962 71.5616 52.9863 61.8241 63.3294 61.8241C73.6681 61.8241 82.048 71.5616 82.048 83.5774Z" fill="#DD8048"/>
<path d="M60.2018 110.782C60.2018 122.798 51.8219 132.552 41.4773 132.552C31.1299 132.552 22.75 122.798 22.75 110.782C22.75 98.766 31.1299 89.0284 41.4773 89.0284C51.8219 89.0284 60.2018 98.766 60.2018 110.782Z" fill="#C67240"/>
<path d="M39.3946 132.552C39.3946 144.568 31.0104 154.339 20.6717 154.339C10.3286 154.339 1.93994 144.568 1.93994 132.552C1.93994 120.536 10.3286 110.782 20.6717 110.782C31.0104 110.782 39.3946 120.536 39.3946 132.552Z" fill="#DD8048"/>
<path d="M108.59 77.5696C107.539 78.2615 106.497 79.0041 105.446 79.7635C99.333 84.1513 92.4139 87.8472 86.806 93.0788C80.6637 98.8335 77.8104 107.39 73.9697 115.237C69.6628 124.097 64.3657 131.337 56.0903 134.56C51.3958 136.4 44.7976 135.91 42.4002 142.053C41.7787 143.623 40.3441 146.087 40.8741 147.943C41.2952 149.394 42.8881 150.12 43.8058 151.133C44.6465 152.061 45.3595 153.175 45.9708 154.339H240.831C241.128 153.006 241.277 151.791 241.305 150.643L108.59 77.5696" fill="#C26238"/>
<path d="M240.832 154.339H45.9712C46.0714 154.508 46.1716 154.71 46.2631 154.896C47.6251 157.664 48.4687 160.701 49.4823 163.655C50.5191 166.692 51.4426 169.764 52.3283 172.869H89.9297C90.2492 172.818 90.5686 172.818 90.8794 172.818C91.209 172.818 91.5284 172.835 91.8435 172.869H188.858C193.478 170.017 198.07 167.047 203.28 166C204.47 165.764 205.712 165.663 206.983 165.663C210.06 165.663 213.33 166.237 216.591 166.81C219.848 167.401 223.103 167.975 226.141 167.975C232.539 167.975 238.012 165.41 240.675 154.963C240.727 154.744 240.777 154.542 240.832 154.339" fill="#C77852"/>
<path d="M188.857 172.869H91.8428C97.2721 173.426 101.711 178.624 106.808 181.796C109.972 183.771 113.078 184.547 116.142 184.547C121.946 184.547 127.613 181.763 133.368 178.961C139.112 176.177 144.941 173.392 151.041 173.392C152.913 173.392 154.813 173.645 156.745 174.236C162.634 176.109 167.7 178.911 173.381 178.911C175.18 178.911 177.047 178.624 179.021 177.932C182.459 176.751 185.674 174.827 188.857 172.869V172.869ZM89.929 172.869H52.3276C52.8388 174.641 53.3325 176.447 53.8349 178.219C54.2821 179.856 54.7715 181.881 55.3509 183.94C60.3097 186.117 65.5255 188.277 70.9635 190.403C76.1155 185.003 79.9286 176.97 86.4818 173.865C87.687 173.291 88.8283 172.987 89.929 172.869" fill="#BA5D37"/>
<path d="M14.9502 163.283V172.869H32.1834C25.4254 169.342 19.6128 166.085 14.9502 163.283ZM73.563 191.399H69.9604C68.7451 192.547 67.444 193.542 66.0137 194.268C65.0002 194.791 64.0825 195.028 63.233 195.028C61.1231 195.028 59.5157 193.559 58.2466 191.399H14.9502V209.946H143.781C118.563 206.436 94.4787 199.365 73.563 191.399" fill="#FBC69A"/>
<path d="M32.1834 172.869H14.9502V191.399H58.2466C57.0123 189.323 56.1048 186.606 55.3511 183.94C46.7839 180.177 39.0023 176.413 32.1834 172.869V172.869ZM70.9638 190.403C70.64 190.758 70.2973 191.079 69.9604 191.399H73.563C72.686 191.062 71.8278 190.741 70.9638 190.403" fill="#E2925B"/>
<path d="M69.9614 191.399H58.2476C59.5167 193.559 61.1241 195.028 63.234 195.028C64.0834 195.028 65.0011 194.791 66.0147 194.268C67.445 193.543 68.746 192.547 69.9614 191.399Z" fill="#D18B66"/>
<path d="M55.3516 183.94C56.1052 186.606 57.0127 189.323 58.247 191.399H69.9608C70.2977 191.079 70.6404 190.758 70.9642 190.403C65.5262 188.277 60.3104 186.117 55.3516 183.94" fill="#C57249"/>
</svg>
