<svg width="250" height="250" viewBox="0 0 250 250" fill="none" xmlns="http://www.w3.org/2000/svg">
<path d="M199.327 246.048C199.327 246.048 181.989 257.541 171.909 241.327C170.394 241.475 168.863 241.49 167.302 241.327L62.6508 230.867C61.5193 230.749 60.4246 230.557 59.3579 230.277C45.9207 246.875 30.1258 231.103 30.1258 231.103C30.1258 231.103 26.2604 211.555 39.6947 203.308C39.6284 201.744 39.6756 200.136 39.8335 198.528L56.4073 32.8932C56.425 32.7309 56.4471 32.5834 56.4619 32.4211C46.4223 21.5775 53.613 4.33093 53.613 4.33093C53.613 4.33093 68.5728 -5.59802 78.7703 5.98329C80.8534 5.59971 82.9971 5.49641 85.1732 5.70296L189.828 16.1778C191.926 16.3843 193.927 16.8859 195.823 17.6236C208.708 5.17185 222.814 19.2612 222.814 19.2612C222.814 19.2612 226.771 39.2961 212.731 47.3514C212.702 47.7498 212.68 48.1186 212.641 48.517L196.073 214.152C195.973 215.155 195.829 216.129 195.647 217.102C206.908 227.872 199.327 246.048 199.327 246.048" fill="#E87C3D"/>
<path d="M195.716 245.694C195.716 245.694 178.378 257.187 168.296 240.958C166.778 241.106 165.246 241.121 163.697 240.973L59.0523 230.498C57.9133 230.395 56.8142 230.188 55.7475 229.923C42.3147 246.52 26.5169 230.734 26.5169 230.734C26.5169 230.734 22.6471 211.186 36.0844 202.954C36.0239 201.39 36.0666 199.797 36.2275 198.159L52.7969 32.5243C52.8146 32.362 52.8338 32.2145 52.853 32.067C42.8119 21.2233 50.0041 3.94724 50.0041 3.94724C50.0041 3.94724 64.9624 -5.96697 75.1702 5.62909C77.2401 5.24551 79.3926 5.1275 81.5687 5.3488L186.218 15.8088C188.316 16.0154 190.319 16.5318 192.218 17.2547C205.104 4.83242 219.203 18.907 219.203 18.907C219.203 18.907 223.171 38.942 209.121 46.9973C209.103 47.3808 209.066 47.7792 209.037 48.1627L192.464 213.783C192.361 214.786 192.218 215.775 192.038 216.748C203.296 227.503 195.716 245.694 195.716 245.694Z" fill="#EE8B4A"/>
<path d="M188.172 57.7525C187.844 61.0573 163.038 61.2786 132.769 58.2394C102.498 55.2297 78.2317 50.0956 78.5652 46.7761C78.8912 43.4861 103.702 43.2501 133.965 46.2745C164.236 49.2989 188.502 54.433 188.172 57.7525" fill="#D27644"/>
<path d="M184.943 93.9715C184.613 97.2763 159.81 97.4976 129.548 94.4732C99.2695 91.4487 75.0064 86.2998 75.3368 83.0098C75.6614 79.6904 100.47 79.4691 130.735 82.4935C161.01 85.5179 185.274 90.652 184.943 93.9715" fill="#D27644"/>
<path d="M181.274 130.663C180.948 133.983 156.135 134.204 125.868 131.165C95.6036 128.14 71.333 123.006 71.662 119.687C71.9954 116.397 96.8001 116.161 127.069 119.2C157.34 122.239 181.597 127.358 181.274 130.663" fill="#D27644"/>
<path d="M177.218 171.264C176.884 174.583 152.076 174.805 121.808 171.765C91.5374 168.741 67.2727 163.607 67.6017 160.302C67.9351 156.997 92.7368 156.776 123.006 159.801C153.277 162.825 177.542 167.959 177.218 171.264" fill="#D27644"/>
<path d="M173.176 207.66C172.843 210.965 148.043 211.201 117.769 208.177C87.5027 205.137 63.2365 200.018 63.5626 196.698C63.896 193.394 88.7007 193.158 118.97 196.197C149.23 199.221 173.505 204.355 173.176 207.66Z" fill="#D27644"/>
<path d="M43.4435 126.089L36.2276 198.159C36.117 199.325 36.0565 200.49 36.0609 201.626C36.0609 202.069 36.0668 202.497 36.0846 202.954C27.5601 208.177 26.0066 217.973 26.0066 224.42C26.0066 228.123 26.517 230.734 26.517 230.734C26.517 230.734 33.3006 237.521 41.7587 237.521C46.2082 237.521 51.1166 235.632 55.7477 229.923C56.8143 230.189 57.9135 230.395 59.0525 230.498L59.1527 230.528L120.283 236.636C107.732 227.223 96.716 216.07 87.0851 204.046C72.6962 201.523 63.3574 198.779 63.5625 196.699C63.7233 195.076 69.7972 194.191 79.5137 194.073C63.3884 171.603 51.664 147.142 43.4435 126.089Z" fill="#F29D5E"/>
<path d="M79.5139 194.072C69.7974 194.19 63.7234 195.076 63.5626 196.698C63.3576 198.779 72.6964 201.523 87.0852 204.046C84.4591 200.785 81.9408 197.451 79.5139 194.072Z" fill="#DA8956"/>
<path d="M170.406 34.6487C170.527 33.4389 171.478 32.5537 172.523 32.6422C173.572 32.7602 174.323 33.8372 174.206 35.0322C174.09 36.242 173.135 37.142 172.091 37.0387C171.037 36.9354 170.286 35.8732 170.406 34.6487Z" fill="#BA6531"/>
<path d="M176.215 65.7634C176.336 64.5684 177.283 63.6537 178.331 63.7717C179.389 63.8897 180.141 64.9372 180.014 66.1617C179.89 67.3568 178.945 68.2567 177.896 68.1534C176.847 68.0502 176.096 66.9879 176.215 65.7634Z" fill="#BA6531"/>
<path d="M192.204 62.9455C192.325 61.7357 193.272 60.821 194.324 60.9391C195.379 61.0423 196.13 62.1193 196.01 63.3143C195.883 64.5241 194.941 65.424 193.884 65.306C192.835 65.2175 192.084 64.1552 192.204 62.9455Z" fill="#BA6531"/>
<path d="M153.196 153.604C153.313 152.38 154.269 151.494 155.318 151.598C156.367 151.686 157.119 152.778 156.998 153.973C156.874 155.198 155.931 156.083 154.873 155.979C153.824 155.876 153.072 154.814 153.196 153.604" fill="#BA6531"/>
<path d="M159.006 184.719C159.132 183.509 160.077 182.609 161.126 182.713C162.17 182.816 162.927 183.893 162.806 185.088C162.685 186.298 161.733 187.198 160.69 187.094C159.634 186.991 158.882 185.929 159.006 184.719Z" fill="#BA6531"/>
<path d="M183.824 146.7C183.945 145.49 184.902 144.575 185.941 144.693C186.998 144.797 187.749 145.859 187.63 147.069C187.509 148.278 186.553 149.178 185.504 149.075C184.455 148.972 183.704 147.895 183.824 146.7Z" fill="#BA6531"/>
<path d="M178.035 223.785C178.15 222.576 179.11 221.676 180.15 221.779C181.204 221.897 181.956 222.959 181.838 224.169C181.714 225.379 180.763 226.279 179.715 226.161C178.666 226.072 177.914 224.995 178.035 223.785" fill="#BA6531"/>
<path d="M61.2227 132.212C61.3437 131.002 62.2938 130.102 63.3383 130.206C64.3858 130.309 65.1382 131.386 65.0232 132.596C64.9081 133.805 63.9506 134.691 62.9076 134.587C61.8527 134.484 61.1018 133.422 61.2227 132.212Z" fill="#BA6531"/>
</svg>
