<svg width="250" height="250" viewBox="0 0 250 250" fill="none" xmlns="http://www.w3.org/2000/svg">
<path d="M249.473 155.806C249.473 175.174 222.639 188.165 186.591 194.837C112.806 208.444 0.460449 195.424 0.460449 155.806C0.460449 132.837 8.92508 111.573 23.2824 94.1589C41.4752 72.1306 69.1319 56.2743 101.168 50.9546C106.914 49.9994 112.791 49.3969 118.787 49.1471C120.83 49.0442 122.887 49.0001 124.974 49.0001C139.214 49.0001 152.881 51.0721 165.621 54.8341C167.664 55.4219 169.663 56.0833 171.646 56.7739C173.91 57.5528 176.129 58.3904 178.318 59.2869C220.376 76.4216 249.473 113.204 249.473 155.806Z" fill="#6C391C"/>
<path d="M23.2824 94.1589C8.91038 111.573 0.460449 132.837 0.460449 155.806C0.460449 185.299 62.7247 200.053 124.974 200.053C146.356 200.053 167.737 198.305 186.591 194.837C167.723 198.305 146.356 200.053 124.974 200.053C62.7247 200.053 0.460449 185.299 0.460449 155.806C0.460449 132.837 8.92508 111.573 23.2824 94.1589Z" fill="white"/>
<path d="M23.2824 94.1589C8.92508 111.573 0.460449 132.837 0.460449 155.806C0.460449 185.299 62.7247 200.053 124.974 200.053C146.356 200.053 167.723 198.305 186.591 194.837C74.2604 181.126 36.1555 129.545 23.2824 94.1589Z" fill="#774323"/>
<path d="M100.433 82.5788C86.6636 96.3484 71.8505 104.107 66.3838 100.595C66.1193 100.434 65.8844 100.243 65.6786 100.052C60.9027 95.2609 68.7057 79.6985 83.1365 65.2824C89.2351 59.1544 95.5543 54.2462 101.168 50.9544C106.914 49.9993 112.792 49.3968 118.787 49.1322C118.978 49.5731 119.111 50.0433 119.199 50.5576C120.257 57.0971 112.762 70.2641 100.433 82.5788Z" fill="#935938"/>
<path d="M178.319 59.2869C177.79 66.2819 170.603 78.0675 159.479 89.1772C145.724 102.961 130.897 110.706 125.43 107.223C125.18 107.047 124.945 106.856 124.725 106.635C119.949 101.874 127.767 86.3116 142.183 71.8808C150.353 63.7102 158.891 57.6704 165.622 54.8342C167.664 55.422 169.663 56.0833 171.647 56.774C173.91 57.5529 176.129 58.3905 178.319 59.2869Z" fill="#935938"/>
<path d="M100.433 82.5788C86.6635 96.3484 71.8504 104.107 66.3837 100.595C65.3257 94.0411 72.8205 80.9035 85.1498 68.5741C98.9194 54.8046 113.732 47.0455 119.199 50.5576C120.257 57.0971 112.762 70.2641 100.433 82.5788Z" fill="#A0623E"/>
<path d="M178.318 59.2869C177.789 66.2819 170.603 78.0675 159.478 89.1772C145.724 102.961 130.896 110.706 125.429 107.223C124.371 100.669 131.881 87.5166 144.195 75.1872C154.1 65.2826 164.519 58.4934 171.646 56.774C173.909 57.5529 176.128 58.3905 178.318 59.2869Z" fill="#A0623E"/>
<path d="M201.904 117.245C201.904 116.422 202.595 115.761 203.447 115.761C204.3 115.761 204.99 116.422 204.99 117.245C204.99 118.068 204.3 118.73 203.447 118.73C202.595 118.73 201.904 118.068 201.904 117.245Z" fill="#935938"/>
<path d="M185.048 117.245C185.048 116.422 185.739 115.761 186.591 115.761C187.444 115.761 188.134 116.422 188.134 117.245C188.134 118.068 187.444 118.73 186.591 118.73C185.739 118.73 185.048 118.068 185.048 117.245Z" fill="#935938"/>
<path d="M220.538 127.943C220.538 127.12 221.243 126.459 222.096 126.459C222.948 126.459 223.639 127.12 223.639 127.943C223.639 128.766 222.948 129.428 222.096 129.428C221.243 129.428 220.538 128.766 220.538 127.943Z" fill="#935938"/>
<path d="M149.28 159.362C149.28 158.539 149.97 157.878 150.823 157.878C151.675 157.878 152.366 158.539 152.366 159.362C152.366 160.185 151.675 160.846 150.823 160.846C149.97 160.846 149.28 160.185 149.28 159.362Z" fill="#935938"/>
<path d="M25.4575 147.106C25.4575 146.283 26.1482 145.622 27.0005 145.622C27.8529 145.622 28.5435 146.283 28.5435 147.106C28.5435 147.929 27.8529 148.59 27.0005 148.59C26.1482 148.59 25.4575 147.929 25.4575 147.106Z" fill="#935938"/>
<path d="M156.202 134.777C156.202 133.954 156.892 133.293 157.745 133.293C158.612 133.293 159.288 133.954 159.288 134.777C159.288 135.6 158.612 136.276 157.745 136.276C156.892 136.276 156.202 135.6 156.202 134.777Z" fill="#935938"/>
<path d="M75.3623 134.777C75.3623 133.954 76.053 133.293 76.9053 133.293C77.7576 133.293 78.4483 133.954 78.4483 134.777C78.4483 135.6 77.7576 136.276 76.9053 136.276C76.053 136.276 75.3623 135.6 75.3623 134.777Z" fill="#935938"/>
<path d="M48.8081 179.686C48.8081 178.877 49.4841 178.201 50.3365 178.201C51.2035 178.201 51.8941 178.877 51.8941 179.686C51.8941 180.509 51.2035 181.185 50.3365 181.185C49.4841 181.185 48.8081 180.509 48.8081 179.686Z" fill="#935938"/>
<path d="M185.048 178.201C185.048 177.393 185.724 176.732 186.591 176.732C187.444 176.732 188.134 177.393 188.134 178.201C188.134 179.024 187.444 179.685 186.591 179.685C185.724 179.685 185.048 179.024 185.048 178.201Z" fill="#935938"/>
<path d="M194.086 92.6746C194.086 91.8516 194.792 91.1757 195.644 91.1757C196.482 91.1757 197.187 91.8516 197.187 92.6746C197.187 93.4975 196.482 94.1588 195.644 94.1588C194.792 94.1588 194.086 93.4975 194.086 92.6746Z" fill="#935938"/>
<path d="M192.852 137.745C192.852 136.937 193.543 136.276 194.395 136.276C195.247 136.276 195.938 136.937 195.938 137.745C195.938 138.568 195.247 139.229 194.395 139.229C193.543 139.229 192.852 138.568 192.852 137.745Z" fill="#935938"/>
<path d="M165.93 160.846C165.93 160.038 166.62 159.362 167.458 159.362C168.325 159.362 169.016 160.038 169.016 160.846C169.016 161.669 168.325 162.33 167.458 162.33C166.62 162.33 165.93 161.669 165.93 160.846Z" fill="#935938"/>
<path d="M186.591 146.695C186.591 145.886 187.282 145.21 188.134 145.21C188.987 145.21 189.677 145.886 189.677 146.695C189.677 147.518 188.987 148.179 188.134 148.179C187.282 148.179 186.591 147.518 186.591 146.695Z" fill="#935938"/>
<path d="M117.744 139.23C117.744 138.407 118.434 137.745 119.287 137.745C120.139 137.745 120.83 138.407 120.83 139.23C120.83 140.052 120.139 140.728 119.287 140.728C118.434 140.728 117.744 140.052 117.744 139.23Z" fill="#935938"/>
<path d="M199.612 142.771C199.612 141.948 200.303 141.272 201.14 141.272C201.993 141.272 202.683 141.948 202.683 142.771C202.683 143.594 201.993 144.255 201.14 144.255C200.303 144.255 199.612 143.594 199.612 142.771Z" fill="#935938"/>
<path d="M123.417 117.245C123.417 116.422 124.122 115.761 124.96 115.761C125.812 115.761 126.517 116.422 126.517 117.245C126.517 118.068 125.812 118.73 124.96 118.73C124.122 118.73 123.417 118.068 123.417 117.245Z" fill="#935938"/>
</svg>
