<svg width="250" height="250" viewBox="0 0 250 250" fill="none" xmlns="http://www.w3.org/2000/svg">
<path d="M13.6682 197.21C8.91777 197.21 4.31487 194.732 1.79213 190.321C-1.94035 183.77 0.346285 175.45 6.89656 171.717L42.4805 151.432C49.0308 147.699 57.3514 149.971 61.0839 156.537C64.8163 163.087 62.5444 171.407 55.9941 175.155L20.4101 195.425C18.271 196.65 15.9549 197.21 13.6682 197.21Z" fill="#934F26"/>
<path d="M239.24 192.416C236.142 193.094 232.793 192.681 229.783 191.044L201.236 175.391C194.627 171.762 192.208 163.456 195.837 156.861C199.466 150.252 207.757 147.832 214.366 151.447L242.913 167.114C249.523 170.744 251.942 179.035 248.313 185.644C246.336 189.244 242.972 191.604 239.24 192.416Z" fill="#934F26"/>
<path d="M197.017 142.138L165.638 129.981C162.82 128.565 159.884 127.163 157.022 125.806C156.033 125.319 155.016 124.833 154.012 124.36C156.476 121.351 158.674 118.09 160.518 114.52C167.305 101.316 167.924 85.6342 162.244 70.3649C160.179 64.7883 157.302 59.4183 153.791 54.4909C166.833 52.8533 179.682 59.1086 187.9 67.6505C205.884 86.3424 205.883 114.284 199.879 134.23C199.082 136.871 198.109 139.512 197.017 142.138V142.138ZM151.445 191.073C129.257 199.999 111.096 192.076 109.695 191.442C109.37 191.265 109.193 191.221 108.824 191.058C97.4941 186.514 86.0163 176.895 76.7957 165.049C86.9015 161.788 99.4709 157.584 105.52 155.046C113.235 151.786 122.146 148.024 130.732 143.141C135.675 145.841 140.632 148.201 145.264 150.429C148.303 151.875 151.165 153.247 153.865 154.604C154.263 154.825 154.691 155.017 155.134 155.179L182.81 165.905C173.707 177.338 162.495 186.618 151.445 191.073ZM72.3847 67.6505C79.7169 60.038 90.7372 54.2401 102.289 54.2401C103.69 54.2401 105.077 54.3138 106.493 54.4909C102.997 59.4183 100.12 64.7883 98.0399 70.3649C92.36 85.6342 92.9796 101.316 99.7807 114.52C101.713 118.282 104.074 121.675 106.715 124.774C102.717 126.603 98.7038 128.299 94.9271 129.893C88.9669 132.401 73.6977 137.402 62.7658 140.899C61.8659 138.671 61.084 136.443 60.4053 134.23C54.4157 114.284 54.3862 86.3424 72.3847 67.6505V67.6505ZM130.142 68.3733C137.947 78.0954 141.723 91.3731 136.25 102.025C134.76 104.902 132.724 107.527 130.275 109.947C127.678 107.557 125.539 104.931 124.034 102.025C118.561 91.3731 122.353 78.0954 130.142 68.3733ZM207.565 48.7373C196.943 37.6874 183.09 30.2962 168.544 27.8619C155.252 25.649 141.856 27.7291 130.142 33.7336C118.428 27.7291 105.033 25.649 91.7404 27.8619C77.194 30.2962 63.3411 37.6874 52.7043 48.7373C39.648 62.3099 31.8585 80.5592 29.9553 100.49C28.6718 113.886 30.0586 128.078 34.2779 142.093C38.7628 156.92 47.3047 172.366 58.3546 185.6C70.275 199.866 84.0984 210.458 98.3349 216.256C101.153 217.54 113.294 222.526 130.068 222.526C139.422 222.526 150.206 220.977 161.625 216.389C162.908 215.858 164.192 215.312 165.475 214.722C178.458 208.673 190.998 198.671 201.93 185.6C212.98 172.366 221.521 156.92 225.992 142.093C236.51 107.232 229.444 71.4567 207.565 48.7373" fill="#BA6531"/>
<path d="M138.094 51.5109C138.094 53.709 136.324 55.4941 134.125 55.4941C131.927 55.4941 130.142 53.709 130.142 51.5109C130.142 49.3127 131.927 47.5276 134.125 47.5276C136.324 47.5276 138.094 49.3127 138.094 51.5109Z" fill="#EE8B4A"/>
<path d="M183.843 42.0837C183.843 44.2819 182.072 46.067 179.874 46.067C177.661 46.067 175.891 44.2819 175.891 42.0837C175.891 39.8856 177.661 38.1153 179.874 38.1153C182.072 38.1153 183.843 39.8856 183.843 42.0837Z" fill="#EE8B4A"/>
<path d="M161.92 95.7399C161.92 97.9381 160.135 99.7232 157.937 99.7232C155.739 99.7232 153.969 97.9381 153.969 95.7399C153.969 93.5417 155.739 91.7567 157.937 91.7567C160.135 91.7567 161.92 93.5417 161.92 95.7399Z" fill="#EE8B4A"/>
<path d="M146.06 134.643C146.06 136.827 144.275 138.612 142.077 138.612C139.879 138.612 138.094 136.827 138.094 134.643C138.094 132.43 139.879 130.645 142.077 130.645C144.275 130.645 146.06 132.43 146.06 134.643Z" fill="#EE8B4A"/>
<path d="M177.263 145.206C177.263 147.404 175.492 149.19 173.294 149.19C171.096 149.19 169.311 147.404 169.311 145.206C169.311 143.008 171.096 141.223 173.294 141.223C175.492 141.223 177.263 143.008 177.263 145.206Z" fill="#EE8B4A"/>
<path d="M114.342 110.405C114.342 112.617 112.557 114.388 110.359 114.388C108.16 114.388 106.375 112.617 106.375 110.405C106.375 108.206 108.16 106.436 110.359 106.436C112.557 106.436 114.342 108.206 114.342 110.405Z" fill="#EE8B4A"/>
<path d="M97.2136 145.206C97.2136 147.404 95.4432 149.19 93.2303 149.19C91.0469 149.19 89.2617 147.404 89.2617 145.206C89.2617 143.008 91.0469 141.223 93.2303 141.223C95.4432 141.223 97.2136 143.008 97.2136 145.206Z" fill="#EE8B4A"/>
<path d="M114.342 74.2449C114.342 76.4578 112.557 78.2281 110.359 78.2281C108.16 78.2281 106.375 76.4578 106.375 74.2449C106.375 72.0467 108.16 70.2764 110.359 70.2764C112.557 70.2764 114.342 72.0467 114.342 74.2449Z" fill="#EE8B4A"/>
<path d="M218.379 79.7036C218.379 81.9018 216.609 83.6869 214.396 83.6869C212.212 83.6869 210.427 81.9018 210.427 79.7036C210.427 77.5054 212.212 75.7203 214.396 75.7203C216.609 75.7203 218.379 77.5054 218.379 79.7036Z" fill="#EE8B4A"/>
<path d="M222.363 124.773C222.363 126.957 220.578 128.757 218.38 128.757C216.181 128.757 214.396 126.957 214.396 124.773C214.396 122.561 216.181 120.79 218.38 120.79C220.578 120.79 222.363 122.561 222.363 124.773Z" fill="#EE8B4A"/>
<path d="M208.996 162.939C208.996 165.137 207.211 166.937 205.013 166.937C202.815 166.937 201.044 165.137 201.044 162.939C201.044 160.756 202.815 158.956 205.013 158.956C207.211 158.956 208.996 160.756 208.996 162.939Z" fill="#EE8B4A"/>
<path d="M177.263 197.21C177.263 199.408 175.492 201.193 173.294 201.193C171.096 201.193 169.311 199.408 169.311 197.21C169.311 195.012 171.096 193.227 173.294 193.227C175.492 193.227 177.263 195.012 177.263 197.21Z" fill="#EE8B4A"/>
<path d="M139.746 213.084C139.746 215.297 137.961 217.068 135.778 217.068C133.565 217.068 131.78 215.297 131.78 213.084C131.78 210.886 133.565 209.101 135.778 209.101C137.961 209.101 139.746 210.886 139.746 213.084Z" fill="#EE8B4A"/>
<path d="M89.2615 196.694C89.2615 198.907 87.4764 200.692 85.2782 200.692C83.08 200.692 81.2949 198.907 81.2949 196.694C81.2949 194.511 83.08 192.726 85.2782 192.726C87.4764 192.726 89.2615 194.511 89.2615 196.694Z" fill="#EE8B4A"/>
<path d="M65.3916 173.429C65.3916 175.612 63.5918 177.397 61.4083 177.397C59.2101 177.397 57.425 175.612 57.425 173.429C57.425 171.231 59.2101 169.431 61.4083 169.431C63.5918 169.431 65.3916 171.231 65.3916 173.429Z" fill="#EE8B4A"/>
<path d="M44.9148 130.66C44.9148 132.844 43.1297 134.643 40.9315 134.643C38.7333 134.643 36.9629 132.844 36.9629 130.66C36.9629 128.462 38.7333 126.677 40.9315 126.677C43.1297 126.677 44.9148 128.462 44.9148 130.66Z" fill="#EE8B4A"/>
<path d="M46.272 79.7036C46.272 81.9018 44.4868 83.6869 42.3034 83.6869C40.0905 83.6869 38.3054 81.9018 38.3054 79.7036C38.3054 77.5054 40.0905 75.7203 42.3034 75.7203C44.4868 75.7203 46.272 77.5054 46.272 79.7036Z" fill="#EE8B4A"/>
<path d="M81.295 42.0837C81.295 44.2819 79.5247 46.067 77.3265 46.067C75.1284 46.067 73.3433 44.2819 73.3433 42.0837C73.3433 39.8856 75.1284 38.1153 77.3265 38.1153C79.5247 38.1153 81.295 39.8856 81.295 42.0837Z" fill="#EE8B4A"/>
<path d="M29.9553 100.49C29.6455 103.677 29.498 106.923 29.498 110.183C29.498 120.643 31.0618 131.412 34.2779 142.093C38.7628 156.92 47.3047 172.366 58.3546 185.6C70.2749 199.866 84.0984 210.458 98.3349 216.256C101.153 217.54 113.294 222.526 130.068 222.526C139.422 222.526 150.206 220.977 161.625 216.389C162.908 215.858 164.192 215.312 165.475 214.722C100.223 204.778 64.1673 168.309 44.2805 132.784C43.5871 133.891 42.3478 134.643 40.9315 134.643C38.7333 134.643 36.9629 132.843 36.9629 130.66C36.9629 128.462 38.7333 126.677 40.9315 126.677C40.961 126.677 40.9905 126.677 41.02 126.677C36.3876 117.618 32.7731 108.737 29.9553 100.49ZM61.4085 177.397C59.2103 177.397 57.4252 175.612 57.4252 173.429C57.4252 171.23 59.2103 169.431 61.4085 169.431C63.5919 169.431 65.3918 171.23 65.3918 173.429C65.3918 175.612 63.5919 177.397 61.4085 177.397ZM85.2786 200.692C83.0804 200.692 81.2954 198.907 81.2954 196.694C81.2954 194.51 83.0804 192.725 85.2786 192.725C87.4768 192.725 89.2619 194.51 89.2619 196.694C89.2619 198.907 87.4768 200.692 85.2786 200.692ZM135.778 217.068C133.565 217.068 131.78 215.297 131.78 213.084C131.78 210.886 133.565 209.101 135.778 209.101C137.961 209.101 139.746 210.886 139.746 213.084C139.746 215.297 137.961 217.068 135.778 217.068Z" fill="#C5783F"/>
<path d="M135.778 209.101C133.565 209.101 131.78 210.886 131.78 213.084C131.78 215.297 133.565 217.068 135.778 217.068C137.961 217.068 139.746 215.297 139.746 213.084C139.746 210.886 137.961 209.101 135.778 209.101Z" fill="#F29D5E"/>
<path d="M85.2782 192.726C83.08 192.726 81.2949 194.511 81.2949 196.694C81.2949 198.907 83.08 200.692 85.2782 200.692C87.4764 200.692 89.2615 198.907 89.2615 196.694C89.2615 194.511 87.4764 192.726 85.2782 192.726Z" fill="#F29D5E"/>
<path d="M61.4083 169.431C59.2101 169.431 57.425 171.231 57.425 173.429C57.425 175.612 59.2101 177.397 61.4083 177.397C63.5918 177.397 65.3916 175.612 65.3916 173.429C65.3916 171.231 63.5918 169.431 61.4083 169.431Z" fill="#F29D5E"/>
<path d="M40.9315 126.677C38.7333 126.677 36.9629 128.462 36.9629 130.66C36.9629 132.844 38.7333 134.643 40.9315 134.643C42.3477 134.643 43.587 133.891 44.2804 132.785C43.1444 130.749 42.0526 128.698 41.0199 126.677C40.9904 126.677 40.961 126.677 40.9315 126.677Z" fill="#F29D5E"/>
<path d="M196.102 46.4063C195.63 46.4063 195.232 46.5095 194.966 46.7898C193.225 48.5601 197.917 53.4581 198.699 54.8743C200.218 57.6331 201.694 60.4068 203.066 63.2246C205.854 69.0224 208.2 75.0416 209.601 81.3115C211.652 90.5026 211.534 100.225 211.165 109.593C210.899 116.158 206.754 129.627 210.457 135.528C211.18 136.679 212.035 137.122 212.891 137.122C214.824 137.122 216.83 134.894 217.7 133.345C218.6 131.752 219.382 130.099 220.031 128.388C219.53 128.624 218.969 128.757 218.379 128.757C216.181 128.757 214.396 126.957 214.396 124.773C214.396 122.561 216.181 120.79 218.379 120.79C219.825 120.79 221.094 121.557 221.787 122.723C225.18 108.634 222.628 92.1843 219.707 78.9658C218.6 73.9793 217.169 69.0814 215.428 64.3753C212.891 57.5004 208.509 50.4043 201.118 47.9258C200.144 47.6012 197.696 46.4063 196.102 46.4063V46.4063ZM214.396 83.6867C212.212 83.6867 210.427 81.9016 210.427 79.7034C210.427 77.5052 212.212 75.7201 214.396 75.7201C216.609 75.7201 218.379 77.5052 218.379 79.7034C218.379 81.9016 216.609 83.6867 214.396 83.6867Z" fill="#C5783F"/>
<path d="M214.396 75.7203C212.212 75.7203 210.427 77.5054 210.427 79.7036C210.427 81.9018 212.212 83.6869 214.396 83.6869C216.609 83.6869 218.379 81.9018 218.379 79.7036C218.379 77.5054 216.609 75.7203 214.396 75.7203Z" fill="#F29D5E"/>
<path d="M218.38 120.79C216.181 120.79 214.396 122.561 214.396 124.773C214.396 126.957 216.181 128.757 218.38 128.757C218.97 128.757 219.53 128.624 220.032 128.388C220.74 126.544 221.315 124.655 221.787 122.723C221.094 121.557 219.825 120.79 218.38 120.79Z" fill="#F29D5E"/>
<path d="M106.478 125.039C106.478 125.039 113.737 130.867 122.102 136.959C126.292 139.999 130.762 143.097 134.774 145.59C138.787 148.068 142.298 149.912 144.674 150.458C144.865 150.503 145.057 150.385 145.101 150.178C145.146 149.971 145.028 149.78 144.821 149.721C142.653 149.249 139.127 147.434 135.158 144.956C129.198 141.267 122.131 136.148 116.569 131.943C113.796 129.849 111.391 127.99 109.68 126.647C108.824 125.969 108.145 125.423 107.673 125.039C107.201 124.685 106.951 124.478 106.951 124.478C106.788 124.346 106.552 124.39 106.434 124.538C106.301 124.7 106.331 124.921 106.478 125.039" fill="#AA582E"/>
</svg>
