<svg width="250" height="250" viewBox="0 0 250 250" fill="none" xmlns="http://www.w3.org/2000/svg">
<path d="M220.85 129.703C219.861 130.505 218.947 131.336 218.1 132.211C194.989 155.514 221.025 198.46 178.511 203.36C159.601 205.548 95.8589 205.898 77.0152 203.404C55.0157 200.502 48.0817 187.946 50.6482 166.597C53.2075 145.379 61.9031 125.824 38.6234 114.61C19.4209 105.35 8.92429 96.3817 24.6371 80.1221C31.698 72.8307 42.5592 67.1726 55.5786 62.8999C98.2577 48.9006 164.275 49.7464 196.58 56.3086C213.369 59.7209 235.93 68.208 245.799 83.024C256.64 99.3128 232.407 120.356 220.85 129.703" fill="#874822"/>
<path d="M220.849 129.703C219.861 130.505 218.946 131.366 218.099 132.211L211.215 132.051L157.254 130.87L65.668 47.6464C107.205 38.1531 145.125 45.109 175.153 51.6421C182.831 53.3191 190.003 54.9669 196.58 56.3085C213.369 59.7209 235.929 68.208 245.808 83.024C256.629 99.3128 232.406 120.356 220.849 129.703" fill="#6B3C22"/>
<path d="M181.501 81.0552C171.634 66.2101 148.653 53.0274 131.86 49.615C89.6957 41.055 43.438 43.4465 13.2621 74.6534C-2.46091 90.9131 -3.43207 105.992 15.785 115.252C39.0487 126.466 30.3589 146.021 27.7996 167.224C25.2331 188.588 32.1656 201.143 54.1665 204.045C73.0146 206.524 95.5652 207.327 114.469 205.139C158.552 200.064 135.373 147.202 163.246 124.614C174.79 115.252 192.339 97.3441 181.501 81.0552" fill="#6B3C22"/>
<path d="M158.134 124.687C155.648 126.713 153.599 128.988 151.903 131.467C136.996 153.035 148.054 189.492 119.946 197.892C117.854 198.519 115.529 198.985 112.97 199.277C95.4548 201.304 74.5665 200.575 57.1067 198.256C36.7333 195.573 30.3081 183.95 32.6939 164.176C33.6753 155.995 35.6425 148.106 36.0566 140.932C36.637 130.797 34.1521 122.091 21.5527 116.024C3.76331 107.464 4.66749 93.4796 19.2327 78.4303C35.7067 61.3832 57.3633 53.6252 80.3762 51.744C96.3924 50.4316 113.043 51.9773 129.063 55.2438C144.623 58.3937 165.908 70.6286 175.044 84.3509C185.083 99.4439 168.833 116.024 158.134 124.687" fill="#9F562C"/>
<path d="M71.3869 107.406C71.3869 110.789 68.6352 113.546 65.2316 113.546C61.8382 113.546 59.0835 110.789 59.0835 107.406C59.0835 104.008 61.8382 101.252 65.2316 101.252C68.6352 101.252 71.3869 104.008 71.3869 107.406Z" fill="#6B3C22"/>
<path d="M144.049 82.0906C144.049 85.4738 141.293 88.2299 137.9 88.2299C134.501 88.2299 131.75 85.4738 131.75 82.0906C131.75 78.6929 134.501 75.9368 137.9 75.9368C141.293 75.9368 144.049 78.6929 144.049 82.0906Z" fill="#6B3C22"/>
<path d="M110.305 175.493C110.305 179.124 107.36 182.069 103.735 182.069C100.105 182.069 97.1709 179.124 97.1709 175.493C97.1709 171.862 100.105 168.93 103.735 168.93C107.36 168.93 110.305 171.862 110.305 175.493" fill="#6B3C22"/>
<path d="M125.809 121.872C125.809 125.503 122.871 128.449 119.247 128.449C115.619 128.449 112.681 125.503 112.681 121.872C112.681 118.241 115.619 115.31 119.247 115.31C122.871 115.31 125.809 118.241 125.809 121.872Z" fill="#6B3C22"/>
<path d="M39.3027 100.829C39.3027 104.461 36.3657 107.406 32.7405 107.406C29.121 107.406 26.1768 104.461 26.1768 100.829C26.1768 97.2276 29.121 94.2673 32.7405 94.2673C36.3657 94.2673 39.3027 97.2276 39.3027 100.829Z" fill="#6B3C22"/>
<path d="M36.0569 140.932C35.6428 148.106 33.6756 155.996 32.6942 164.176C32.3777 166.758 32.2231 169.207 32.2231 171.511C32.2319 186.838 39.4037 195.923 57.107 198.256C67.5628 199.641 79.2348 200.458 90.6865 200.458C98.3585 200.458 105.939 200.094 112.97 199.277C115.53 198.985 117.854 198.519 119.947 197.892C88.5706 184.942 59.7202 163.054 36.0569 140.932" fill="#AF6B3D"/>
<path d="M92.0334 51.2922C88.118 51.2922 84.2287 51.438 80.376 51.7442C106.494 59.0793 135.611 79.6846 151.903 131.468C153.598 128.989 155.647 126.714 158.134 124.687C166.476 117.95 178.18 106.385 178.188 94.4714C178.188 91.0883 177.254 87.6759 175.044 84.3511C165.908 70.6288 144.623 58.3939 129.063 55.2441C116.9 52.7796 104.366 51.2922 92.0334 51.2922V51.2922ZM137.9 88.23C134.501 88.23 131.751 85.4739 131.751 82.0908C131.751 78.693 134.501 75.9369 137.9 75.9369C141.294 75.9369 144.05 78.693 144.05 82.0908C144.05 85.4739 141.294 88.23 137.9 88.23Z" fill="#AF6B3D"/>
<path d="M137.9 75.9368C134.501 75.9368 131.75 78.6929 131.75 82.0906C131.75 85.4738 134.501 88.2299 137.9 88.2299C141.293 88.2299 144.049 85.4738 144.049 82.0906C144.049 78.6929 141.293 75.9368 137.9 75.9368Z" fill="#7F4F2F"/>
</svg>
