<svg width="250" height="250" viewBox="0 0 250 250" fill="none" xmlns="http://www.w3.org/2000/svg">
<path d="M224.782 94.5881L94.5991 224.765C70.8022 248.561 36.0289 252.648 15.3743 234.635L15.345 234.605C14.622 233.971 13.8991 233.307 13.2057 232.599C3.05553 222.449 -1.14931 208.257 0.266996 193.534C0.635826 189.802 1.35868 186.025 2.42091 182.278L2.45059 182.248C2.70139 181.334 2.99634 180.419 3.29141 179.519V179.504C6.66989 169.443 12.6303 159.647 21.0543 151.223L151.237 21.0462C175.875 -3.6055 212.315 -7.10196 232.615 13.2124C233.324 13.891 233.973 14.6287 234.622 15.3369L234.637 15.3811C242.766 24.69 246.395 36.8609 245.761 49.6219C245.701 50.5071 245.642 51.3922 245.554 52.2774C244.683 61.247 241.748 70.4232 236.776 79.0092C233.589 84.5119 229.591 89.7787 224.782 94.5881" fill="#EE8B4A"/>
<path d="M228.971 98.7923L98.789 228.97C74.1511 253.592 37.7105 257.103 17.3953 236.803C16.7019 236.095 16.0234 235.372 15.3742 234.635L15.3449 234.62C6.66996 224.647 3.14383 211.429 4.45687 197.723C4.66341 195.54 5.00285 193.357 5.4602 191.159C6.86176 184.402 9.42864 177.645 13.1022 171.228C16.3036 165.637 20.3462 160.296 25.2295 155.398L155.412 25.2355C179.194 1.45427 213.952 -2.63222 234.622 15.3513L234.636 15.3808C235.374 16.0152 236.097 16.6791 236.805 17.4019C246.129 26.7108 250.437 39.3981 249.965 52.823C249.936 54.0179 249.862 55.2424 249.744 56.4669C249.109 63.0613 247.339 69.7738 244.477 76.265C240.966 84.2757 235.773 91.9618 228.971 98.7923" fill="#CE7844"/>
<path d="M244.477 76.2651C242.205 77.2978 239.608 78.2124 236.776 79.009C221.978 83.2135 200.232 84.3347 177.084 81.3695C150.794 77.9764 129.372 70.1427 119.355 61.3059C117.688 59.8601 116.36 58.3997 115.372 56.8949L138.608 33.6595C141.706 33.0251 145.04 32.5087 148.551 32.0956C161.283 30.6351 176.435 30.7385 192.251 32.7743C215.28 35.7249 234.577 42.1126 245.76 49.6217C247.339 50.6692 248.726 51.7462 249.965 52.8231C249.935 54.0181 249.862 55.2426 249.744 56.467C249.109 63.0615 247.339 69.7739 244.477 76.2651" fill="#EE8B4A"/>
<path d="M202.962 124.787L183.665 144.083C180.434 144.968 176.893 145.706 173.072 146.281C159.455 148.391 142.474 148.538 124.667 146.252C91.5309 141.988 66.0964 130.629 61.5229 119.122C60.6819 117.012 60.549 114.902 61.1981 112.807C61.7292 111.111 62.7621 109.503 64.2522 108.028C67.6455 104.62 73.399 101.846 80.8346 99.8103C95.6173 95.7681 117.039 94.7206 139.818 97.6417C168.085 101.3 190.761 110.078 199.642 119.726C201.177 121.393 202.298 123.075 202.962 124.787" fill="#EE8B4A"/>
<path d="M140.585 187.175L113.144 214.586C110.164 215.014 107.036 215.338 103.791 215.589C92.4307 216.386 79.551 216.046 66.2141 214.32C36.8847 210.544 13.6043 201.235 5.46047 191.159C3.08521 188.223 1.99324 185.228 2.42108 182.278C2.49485 181.82 2.59829 181.363 2.74582 180.876C2.89336 180.404 3.07028 179.947 3.29158 179.504C4.87017 176.288 8.26341 173.515 13.1025 171.228C27.1328 164.574 53.2017 162.096 81.3508 165.74C105.207 168.808 125.05 175.536 136.011 183.354C137.767 184.608 139.301 185.877 140.585 187.175" fill="#EE8B4A"/>
<path d="M144.613 74.2293L122.675 96.1664C128.237 96.4171 133.99 96.904 139.818 97.6416C168.085 101.3 190.761 110.078 199.642 119.726C199.864 119.977 200.085 120.213 200.291 120.479L212.964 107.792C218.674 102.068 223.233 95.7975 226.522 89.3801C228.027 86.4591 229.281 83.5086 230.255 80.5876C222.259 82.1661 212.832 83.0365 202.608 83.0365C194.508 83.0365 185.892 82.4907 177.084 81.3695C165.016 79.8057 153.981 77.3273 144.613 74.2293" fill="#D68B56"/>
<path d="M204.23 36.964C190.731 36.964 174.916 43.9125 161.992 56.8506L144.613 74.2293C153.981 77.3273 165.016 79.8057 177.085 81.3695C185.892 82.4907 194.508 83.0365 202.608 83.0365C212.832 83.0365 222.259 82.1662 230.255 80.5876C231.008 78.3157 231.598 76.0438 232.026 73.8014C232.203 72.872 232.35 71.9278 232.468 70.9984C233.811 60.6716 231.45 51.2446 224.988 44.8125C224.502 44.3256 224 43.8535 223.483 43.411L223.469 43.3963C218.32 39.059 211.622 36.964 204.23 36.964" fill="#F29D5E"/>
<path d="M83.1066 135.718L54.7805 164.073C55.1345 164.058 55.4888 164.058 55.8429 164.058C63.9424 164.058 72.5433 164.589 81.3509 165.74C105.207 168.808 125.05 175.536 136.012 183.354C136.292 183.546 136.557 183.738 136.823 183.93L174.724 146.03C174.193 146.119 173.632 146.207 173.072 146.281C166.197 147.358 158.437 147.919 150.16 147.919C142.06 147.919 133.474 147.387 124.667 146.252C108.468 144.157 94.0978 140.38 83.1066 135.718V135.718ZM32.695 206.841C32.3557 214.91 34.4212 222.228 39.098 227.775H39.1127C39.5405 228.291 40.0127 228.807 40.4995 229.309C45.7959 234.59 53.0987 237.128 61.2572 237.128C74.7416 237.128 90.5867 230.179 103.496 217.256L105.296 215.471C104.794 215.515 104.292 215.545 103.791 215.589C99.9402 215.854 95.9124 216.002 91.752 216.002C83.6524 216.002 75.0366 215.471 66.2142 214.32C53.7035 212.712 42.2994 210.086 32.695 206.841" fill="#D68B56"/>
<path d="M122.675 96.1664L83.1064 135.718C94.0976 140.38 108.467 144.157 124.666 146.252C133.474 147.388 142.06 147.919 150.16 147.919C158.436 147.919 166.197 147.358 173.072 146.281C173.632 146.207 174.193 146.119 174.724 146.03L200.291 120.479C200.085 120.213 199.863 119.977 199.642 119.726C190.761 110.078 168.085 101.3 139.818 97.6417C133.99 96.9041 128.237 96.4172 122.675 96.1664" fill="#F29D5E"/>
<path d="M55.8427 164.058C55.4886 164.058 55.1344 164.058 54.7803 164.073L52.5379 166.3C48.4365 170.402 44.9252 174.798 42.0631 179.327C38.7584 184.535 36.2945 189.905 34.7159 195.171C34.2143 196.897 33.7864 198.609 33.4766 200.291C33.0487 202.518 32.7833 204.716 32.6948 206.841C42.2992 210.086 53.7033 212.712 66.214 214.32C75.0364 215.471 83.6523 216.002 91.7518 216.002C95.9122 216.002 99.94 215.854 103.791 215.589C104.292 215.545 104.794 215.515 105.295 215.471L136.823 183.93C136.557 183.738 136.292 183.546 136.011 183.354C125.05 175.535 105.207 168.808 81.3508 165.74C72.5431 164.589 63.9422 164.058 55.8427 164.058" fill="#F29D5E"/>
</svg>
