<svg width="251" height="250" viewBox="0 0 251 250" fill="none" xmlns="http://www.w3.org/2000/svg">
<path d="M190.683 99.7296L187.623 86.0549H176.565C165.359 79.7867 149.038 75.8247 130.884 75.8247C112.715 75.8247 96.4241 79.7867 85.2034 86.0549H74.1453L71.0852 99.7296C70.1095 101.903 69.5771 104.165 69.5771 106.5C69.5771 123.413 97.0302 137.147 130.884 137.147C164.753 137.147 192.206 123.413 192.206 106.5C192.206 104.165 191.674 101.903 190.683 99.7296Z" fill="#FAB987"/>
<path d="M192.206 98.2216C192.206 120.101 69.5771 120.101 69.5771 98.2216C69.5771 76.3421 97.0302 58.5872 130.884 58.5872C164.753 58.5872 192.206 76.3421 192.206 98.2216Z" fill="#F68140"/>
<path d="M111.829 72.2474C97.9768 72.2474 85.7804 76.8303 78.6548 83.7933C97.6072 87.2822 112.805 96.5219 119.457 108.393C123.833 108.186 128.076 107.816 131.964 107.255C135.615 100.691 141.854 94.9401 149.896 90.505C144.973 79.9496 129.791 72.2474 111.829 72.2474" fill="#F79453"/>
<path d="M148.136 69.9705C148.136 71.4636 146.909 72.6758 145.416 72.6758C143.923 72.6758 142.696 71.4636 142.696 69.9705C142.696 68.4626 143.923 67.2503 145.416 67.2503C146.909 67.2503 148.136 68.4626 148.136 69.9705Z" fill="#D47A47"/>
<path d="M160.436 85.3011C160.436 86.7942 159.224 88.0064 157.716 88.0064C156.223 88.0064 155.011 86.7942 155.011 85.3011C155.011 83.7932 156.223 82.5957 157.716 82.5957C159.224 82.5957 160.436 83.7932 160.436 85.3011Z" fill="#D47A47"/>
<path d="M175.634 75.8248C175.634 77.3327 174.422 78.545 172.929 78.545C171.421 78.545 170.208 77.3327 170.208 75.8248C170.208 74.3465 171.421 73.1195 172.929 73.1195C174.422 73.1195 175.634 74.3465 175.634 75.8248Z" fill="#D47A47"/>
<path d="M142.697 108.585C142.697 110.078 141.499 111.29 139.991 111.29C138.498 111.29 137.286 110.078 137.286 108.585C137.286 107.077 138.498 105.865 139.991 105.865C141.499 105.865 142.697 107.077 142.697 108.585Z" fill="#D47A47"/>
<path d="M121.6 123.398L118.525 109.724H107.482C96.2614 103.455 79.9552 99.5081 61.8011 99.5081C43.6322 99.5081 27.3261 103.455 16.1055 109.724H5.06236L2.00202 123.398C1.02631 125.571 0.479492 127.833 0.479492 130.154C0.479492 147.096 27.947 160.83 61.8011 160.83C95.6552 160.83 123.123 147.096 123.123 130.154C123.123 127.833 122.576 125.571 121.6 123.398Z" fill="#FAB987"/>
<path d="M123.123 121.905C123.123 143.784 0.479492 143.784 0.479492 121.905C0.479492 100.011 27.9322 82.2705 61.8011 82.2705C95.6552 82.2705 123.123 100.011 123.123 121.905Z" fill="#EE8B4A"/>
<path d="M42.7456 95.9305C20.7921 95.9305 3.00781 107.432 3.00781 121.609C3.00781 128.705 22.8766 132.253 42.7456 132.253C56.9229 132.253 71.1003 130.435 78.0633 126.828C78.8764 126.266 79.734 125.704 80.6063 125.172C81.8185 124.093 82.4836 122.91 82.4836 121.609C82.4836 107.432 64.699 95.9305 42.7456 95.9305" fill="#F29D5E"/>
<path d="M79.0387 93.6387C79.0387 95.1466 77.8266 96.3442 76.3335 96.3442C74.8256 96.3442 73.6133 95.1466 73.6133 93.6387C73.6133 92.1456 74.8256 90.9333 76.3335 90.9333C77.8266 90.9333 79.0387 92.1456 79.0387 93.6387Z" fill="#D47A47"/>
<path d="M91.3384 108.969C91.3384 110.463 90.1261 111.69 88.6329 111.69C87.1398 111.69 85.9277 110.463 85.9277 108.969C85.9277 107.476 87.1398 106.249 88.6329 106.249C90.1261 106.249 91.3384 107.476 91.3384 108.969Z" fill="#D47A47"/>
<path d="M106.551 99.508C106.551 101.001 105.324 102.213 103.831 102.213C102.338 102.213 101.125 101.001 101.125 99.508C101.125 98.0001 102.338 96.8026 103.831 96.8026C105.324 96.8026 106.551 98.0001 106.551 99.508Z" fill="#D47A47"/>
<path d="M73.6129 132.253C73.6129 133.746 72.4006 134.973 70.8927 134.973C69.4144 134.973 68.1875 133.746 68.1875 132.253C68.1875 130.76 69.4144 129.533 70.8927 129.533C72.4006 129.533 73.6129 130.76 73.6129 132.253Z" fill="#D47A47"/>
<path d="M249.477 122.171L246.402 108.496H235.374C224.138 102.228 207.832 98.281 189.678 98.281C171.524 98.281 155.218 102.228 143.982 108.496H132.954L129.879 122.171C128.903 124.344 128.356 126.606 128.356 128.927C128.356 145.869 155.809 159.588 189.678 159.588C223.547 159.588 251 145.869 251 128.927C251 126.606 250.453 124.344 249.477 122.171" fill="#FAB987"/>
<path d="M251 120.678C251 142.557 128.356 142.557 128.356 120.678C128.356 98.7832 155.809 81.0283 189.678 81.0283C223.547 81.0283 251 98.7832 251 120.678Z" fill="#EE8B4A"/>
<path d="M170.622 94.6887C151.818 94.6887 136.059 103.145 131.934 114.498C149.039 116.095 163.866 122.245 173.357 130.997C192.28 130.686 210.375 127.153 210.375 120.382C210.375 106.19 192.576 94.6887 170.622 94.6887" fill="#F29D5E"/>
<path d="M206.916 92.412C206.916 93.9051 205.718 95.1173 204.21 95.1173C202.717 95.1173 201.505 93.9051 201.505 92.412C201.505 90.9041 202.717 89.6919 204.21 89.6919C205.718 89.6919 206.916 90.9041 206.916 92.412Z" fill="#D47A47"/>
<path d="M219.231 107.742C219.231 109.236 218.019 110.463 216.511 110.463C215.018 110.463 213.806 109.236 213.806 107.742C213.806 106.234 215.018 105.022 216.511 105.022C218.019 105.022 219.231 106.234 219.231 107.742Z" fill="#D47A47"/>
<path d="M234.428 98.2809C234.428 99.7741 233.215 100.986 231.722 100.986C230.229 100.986 229.002 99.7741 229.002 98.2809C229.002 96.773 230.229 95.5607 231.722 95.5607C233.215 95.5607 234.428 96.773 234.428 98.2809Z" fill="#D47A47"/>
<path d="M201.505 131.026C201.505 132.519 200.292 133.746 198.799 133.746C197.291 133.746 196.079 132.519 196.079 131.026C196.079 129.533 197.291 128.306 198.799 128.306C200.292 128.306 201.505 129.533 201.505 131.026Z" fill="#D47A47"/>
<path d="M182.908 153.039L179.847 138.551H168.804C157.583 131.928 141.277 127.73 123.123 127.73C104.954 127.73 88.6482 131.928 77.4276 138.551H66.3841L63.3094 153.039C62.3336 155.33 61.8013 157.725 61.8013 160.179C61.8013 178.112 89.2543 192.629 123.123 192.629C156.977 192.629 184.43 178.112 184.43 160.179C184.43 157.725 183.898 155.33 182.908 153.039Z" fill="#FAB987"/>
<path d="M184.43 153.719C184.43 175.599 61.8013 175.599 61.8013 153.719C61.8013 131.825 89.2543 114.099 123.123 114.099C156.977 114.099 184.43 131.825 184.43 153.719Z" fill="#EE8B4A"/>
<path d="M104.052 127.73C82.1138 127.73 64.3291 139.231 64.3291 153.423C64.3291 160.519 84.1982 164.067 104.052 164.067C123.936 164.067 143.805 160.519 143.805 153.423C143.805 139.231 126.006 127.73 104.052 127.73Z" fill="#F29D5E"/>
<path d="M140.36 125.453C140.36 126.946 139.148 128.173 137.64 128.173C136.147 128.173 134.935 126.946 134.935 125.453C134.935 123.96 136.147 122.733 137.64 122.733C139.148 122.733 140.36 123.96 140.36 125.453Z" fill="#D47A47"/>
<path d="M152.646 140.783C152.646 142.291 151.448 143.489 149.94 143.489C148.447 143.489 147.235 142.291 147.235 140.783C147.235 139.29 148.447 138.078 149.94 138.078C151.448 138.078 152.646 139.29 152.646 140.783Z" fill="#D47A47"/>
<path d="M167.873 131.322C167.873 132.815 166.646 134.042 165.153 134.042C163.659 134.042 162.433 132.815 162.433 131.322C162.433 129.829 163.659 128.602 165.153 128.602C166.646 128.602 167.873 129.829 167.873 131.322Z" fill="#D47A47"/>
<path d="M134.934 164.067C134.934 165.575 133.722 166.773 132.214 166.773C130.721 166.773 129.509 165.575 129.509 164.067C129.509 162.574 130.721 161.362 132.214 161.362C133.722 161.362 134.934 162.574 134.934 164.067Z" fill="#D47A47"/>
</svg>
