<svg width="250" height="250" viewBox="0 0 250 250" fill="none" xmlns="http://www.w3.org/2000/svg">
<path d="M246.499 144.42C246.499 174.23 192.218 198.387 125.242 198.387C58.2816 198.387 4 174.23 4 144.42C4 114.625 58.2816 57.2235 125.242 57.2235C192.218 57.2235 246.499 114.625 246.499 144.42Z" fill="#D47840"/>
<path d="M246.499 139.197C246.499 169.006 192.218 193.163 125.242 193.163C58.2816 193.163 4 169.006 4 139.197C4 109.401 58.2816 52.0001 125.242 52.0001C192.218 52.0001 246.499 109.401 246.499 139.197Z" fill="#EE8B4A"/>
<path d="M102.745 75.8421C50.4675 75.8421 8.09277 120.65 8.09277 143.905C8.09277 167.175 50.4675 186.036 102.745 186.036C155.009 186.036 197.398 167.175 197.398 143.905C197.398 120.65 155.009 75.8421 102.745 75.8421Z" fill="#F29D5E"/>
<path d="M118.788 153.951C85.8156 69.0444 35.9707 90.2245 35.9707 90.2245C35.9707 90.2245 98.8958 102.732 118.788 153.951Z" fill="#C26C38"/>
<path d="M161.606 133.014C133.371 46.4186 82.4238 64.8082 82.4238 64.8082C82.4238 64.8082 144.576 80.7649 161.606 133.014Z" fill="#C26C38"/>
<path d="M214.242 127.061C192.446 46.5619 135.074 58.8406 135.074 58.8406C135.074 58.8406 200.374 75.8421 214.242 127.061Z" fill="#C26C38"/>
<path d="M214.242 127.061L214.6 126.989C206.228 96.0777 192.618 78.7758 178.966 69.2018C165.313 59.6421 151.675 57.8246 143.303 57.8246C138.179 57.8246 135.017 58.4973 135.002 58.4973L133.528 58.812L134.974 59.1842C134.974 59.1842 135.231 59.27 135.718 59.3988C139.31 60.4149 155.639 65.4093 172.683 76.1282C189.713 86.8471 207.445 103.276 213.899 127.161L214.6 126.989L214.242 127.061L214.6 126.989C207.616 101.23 187.753 84.1138 169.635 73.4378C151.546 62.7618 135.174 58.5116 135.16 58.4973L135.074 58.8406L135.146 59.1984C135.146 59.1984 135.203 59.1841 135.289 59.1698C135.933 59.041 138.866 58.5402 143.303 58.5402C151.575 58.5402 165.056 60.329 178.551 69.7743C192.046 79.2481 205.57 96.3783 213.899 127.161L214.6 126.989L214.242 127.061Z" fill="#EE8B4A"/>
</svg>
