<svg width="250" height="250" viewBox="0 0 250 250" fill="none" xmlns="http://www.w3.org/2000/svg">
<path d="M250 134.788C250 149.255 232.812 158.969 209.708 163.935C162.423 174.097 90.425 164.389 90.425 134.788C90.425 117.629 95.8544 101.734 105.061 88.7224C119.519 68.3064 143.317 55 170.213 55C214.282 55 250 90.7171 250 134.788" fill="#E48043"/>
<path d="M138.979 66.0328C138.979 66.0328 142.121 129.609 208.955 134.621C208.955 134.621 226.763 60.9561 138.979 66.0328Z" fill="#F89F68"/>
<path d="M209.708 163.935C162.423 174.097 90.425 164.389 90.425 134.788C90.425 117.629 95.8544 101.734 105.061 88.7224C113.308 115.17 137.725 153.699 209.708 163.935Z" fill="#F89F68"/>
<path d="M135.969 65.1139L211.566 139.112L213.617 137.016L138.034 63.0262" fill="#E48043"/>
<path d="M159.575 161.439C159.575 175.907 142.372 185.612 119.268 190.586C71.9976 200.75 0 191.042 0 161.439C0 144.279 5.41466 128.385 14.6209 115.375C29.0794 94.9589 52.8769 81.6334 79.7875 81.6334C123.856 81.6334 159.575 117.368 159.575 161.439" fill="#EE8B4A"/>
<path d="M48.5393 92.6853C48.5393 92.6853 51.6818 156.262 118.516 161.272C118.516 161.272 136.338 87.6086 48.5393 92.6853Z" fill="#F89F68"/>
<path d="M119.268 190.586C71.9977 200.75 0 191.042 0 161.439C0 144.279 5.41466 128.385 14.6209 115.375C22.8829 141.821 47.2854 180.351 119.268 190.586" fill="#F89F68"/>
<path d="M45.5439 91.766L121.127 165.764L123.192 163.666L47.6095 89.6681" fill="#EE8B4A"/>
</svg>
