<svg width="250" height="250" viewBox="0 0 250 250" fill="none" xmlns="http://www.w3.org/2000/svg">
<path d="M244.724 125.359C244.724 158.965 229.989 189.282 206.372 210.674C194.429 221.488 180.223 230.03 164.504 235.547C151.365 240.18 137.172 242.702 122.366 242.702C54.7846 242.702 0 190.153 0 125.359C0 60.5347 54.7846 7.99998 122.366 7.99998C189.939 7.99998 244.724 60.5347 244.724 125.359" fill="#C7743D"/>
<path d="M250 125.359C250 158.965 235.268 189.282 211.643 210.674C199.711 221.488 185.502 230.03 169.776 235.547C156.635 240.18 142.443 242.702 127.646 242.702C60.0665 242.702 5.28052 190.153 5.28052 125.359C5.28052 60.5347 60.0665 7.99998 127.646 7.99998C195.218 7.99998 250 60.5347 250 125.359" fill="#EE8B4A"/>
<path d="M211.588 210.718C206.297 215.513 200.554 219.85 194.439 223.686C199.933 220.455 205.045 216.693 209.711 212.474C210.343 211.899 210.971 211.308 211.588 210.718" fill="white"/>
<path d="M146.103 59.0153C94.9331 59.0153 53.4526 98.8036 53.4526 147.871C53.4526 196.939 94.9331 236.728 146.103 236.728C157.314 236.728 168.058 234.81 178.005 231.313C183.776 229.277 189.271 226.725 194.439 223.686C200.554 219.85 206.298 215.513 211.588 210.718C228.363 194.638 238.748 172.42 238.748 147.871C238.748 98.8036 197.27 59.0153 146.103 59.0153" fill="#F29D5E"/>
<path d="M211.642 210.674C199.71 221.488 185.502 230.03 169.775 235.547C163.946 236.329 158.022 236.728 152.042 236.728C116.659 236.728 83.3976 222.948 58.3798 197.913C16.6426 156.207 16.6426 88.2848 58.3798 46.5492C92.1711 12.78 147.165 12.78 180.955 46.5492C208.414 74.0041 208.414 118.661 180.955 146.116C170.122 156.959 155.717 162.919 140.388 162.919C125.067 162.919 110.656 156.959 99.8219 146.116C90.9466 137.249 86.0649 125.462 86.0649 112.922C86.0649 100.382 90.9466 88.5946 99.8219 79.7134C107.111 72.4256 116.813 68.4128 127.128 68.4128C132.291 68.4128 137.284 69.4013 141.917 71.3339C146.54 73.237 150.79 76.0695 154.435 79.7134C160.477 85.7473 163.793 93.7729 163.793 102.3C163.793 110.842 160.477 118.867 154.435 124.901C144.061 135.258 127.174 135.258 116.789 124.901C112.573 120.682 110.257 115.061 110.257 109.086C110.257 103.126 112.573 97.5201 116.789 93.286C118.857 91.2501 122.199 91.2501 124.26 93.286C126.309 95.3514 126.309 98.7003 124.26 100.751C122.023 102.993 120.797 105.944 120.797 109.086C120.797 112.258 122.023 115.209 124.26 117.436C130.514 123.706 140.711 123.706 146.975 117.436C151.016 113.409 153.248 108.024 153.248 102.3C153.248 96.5907 151.016 91.2206 146.975 87.1636C141.667 81.8673 134.628 78.9611 127.128 78.9611C119.633 78.9611 112.585 81.8673 107.278 87.1636C100.412 94.0532 96.6205 103.2 96.6205 112.922C96.6205 122.644 100.412 131.791 107.278 138.666C116.121 147.503 127.889 152.371 140.388 152.371C152.897 152.371 164.66 147.503 173.496 138.666C184.802 127.35 191.028 112.332 191.028 96.3546C191.028 80.3479 184.802 65.3295 173.496 54.0289C143.819 24.3315 95.5215 24.3315 65.8314 54.0289C28.2177 91.6338 28.2177 152.843 65.8314 190.463C88.8679 213.492 119.48 226.179 152.042 226.179C173.254 226.179 193.645 220.794 211.642 210.674" fill="#FAB987"/>
<path d="M223.757 65.3441C223.757 68.5307 221.168 71.1273 217.971 71.1273C214.77 71.1273 212.181 68.5307 212.181 65.3441C212.181 62.1575 214.77 59.5463 217.971 59.5463C221.168 59.5463 223.757 62.1575 223.757 65.3441Z" fill="#E17C40"/>
<path d="M146.103 43.3624C146.103 46.549 143.505 49.1455 140.313 49.1455C137.116 49.1455 134.528 46.549 134.528 43.3624C134.528 40.1758 137.116 37.5793 140.313 37.5793C143.505 37.5793 146.103 40.1758 146.103 43.3624Z" fill="#E17C40"/>
<path d="M75.7752 88.624C75.7752 91.8254 73.1861 94.4218 69.9936 94.4218C66.7923 94.4218 64.2002 91.8254 64.2002 88.624C64.2002 85.4374 66.7923 82.8409 69.9936 82.8409C73.1861 82.8409 75.7752 85.4374 75.7752 88.624Z" fill="#E17C40"/>
<path d="M29.624 161.606C29.624 164.807 27.0305 167.374 23.838 167.374C20.647 167.374 18.0579 164.807 18.0579 161.606C18.0579 158.405 20.647 155.808 23.838 155.808C27.0305 155.808 29.624 158.405 29.624 161.606Z" fill="#E17C40"/>
</svg>
