<svg width="250" height="250" viewBox="0 0 250 250" fill="none" xmlns="http://www.w3.org/2000/svg">
<path d="M124.968 123.871C126.174 125.17 127.47 126.379 128.824 127.545C129.22 127.884 129.616 128.209 130.034 128.548C129.776 128.755 129.525 128.961 129.265 129.183C127.747 130.422 126.309 131.779 124.968 133.21C123.395 131.543 121.711 129.979 119.901 128.548C121.711 127.117 123.395 125.539 124.968 123.871V123.871ZM187.449 128.548C195.198 122.381 200.928 113.795 203.466 103.924C204.422 100.221 204.923 96.3559 204.923 92.3724C204.923 71.5403 191.138 53.9392 172.184 48.1853C171.338 47.9198 170.477 47.6985 169.605 47.4772C169.618 47.0493 169.641 46.6214 169.641 46.1936C169.641 42.874 169.299 39.6577 168.629 36.5447C164.203 15.6536 145.658 4.56721e-06 123.455 4.56721e-06C97.9448 4.56721e-06 77.2706 20.6846 77.2706 46.1936C77.2706 46.9018 77.2927 47.6099 77.3208 48.3181C58.594 54.2048 45 71.7026 45 92.3724C45 107.023 51.8383 120.08 62.4875 128.548C51.8383 137.017 45 150.059 45 164.724C45 185.468 58.7002 203.025 77.5479 208.852C80.0531 231.986 99.643 250 123.455 250C145.652 250 164.181 234.346 168.622 213.47C168.889 212.231 169.094 210.962 169.261 209.678C169.596 209.605 169.938 209.516 170.282 209.428C190.205 204.308 204.923 186.235 204.923 164.724C204.923 161.346 204.566 158.085 203.883 154.913C201.592 144.305 195.654 135.069 187.449 128.548" fill="#DD8048"/>
<path d="M132.588 132.369C131.544 131.233 130.43 130.186 129.266 129.183C128.876 128.829 128.467 128.504 128.056 128.165C128.314 127.973 128.568 127.752 128.824 127.545C130.151 126.453 131.409 125.243 132.588 123.989C134.003 125.494 135.524 126.896 137.144 128.165C135.524 129.463 134.003 130.865 132.588 132.369V132.369ZM188.609 128.165C196.117 122.204 201.51 113.677 203.466 103.924C203.996 101.284 204.274 98.5541 204.274 95.7509C204.274 83.3136 198.789 72.1599 190.112 64.5766C185.176 60.2538 179.208 57.0965 172.616 55.5031C172.629 55.1195 172.638 54.7506 172.638 54.3523C172.638 52.2425 172.491 50.1918 172.184 48.1853C171.563 44.069 170.356 40.1741 168.63 36.5447C161.968 22.5878 147.731 12.9389 131.247 12.9389C108.372 12.9389 89.8351 31.4842 89.8351 54.3523C89.8351 54.9719 89.8528 55.6211 89.8764 56.2556C73.0942 61.5373 60.915 77.2056 60.915 95.7509C60.915 108.896 67.0437 120.596 76.5834 128.165C67.0437 135.763 60.915 147.462 60.915 160.593C60.915 179.212 73.1871 194.94 90.0815 200.162C91.129 209.914 95.5978 218.663 102.215 225.184C109.693 232.532 119.94 237.061 131.247 237.061C147.731 237.061 161.958 227.427 168.622 213.47C169.233 212.157 169.795 210.8 170.282 209.428C171.238 206.713 171.93 203.865 172.305 200.915C190.629 196.636 204.274 180.23 204.274 160.593C204.274 158.675 204.145 156.772 203.883 154.913C202.408 144.128 196.752 134.656 188.609 128.165" fill="#EE8B4A"/>
<path d="M87.0596 113.146C87.0596 113.146 87.1525 112.777 87.3753 112.083C87.6069 111.419 87.933 110.401 88.4479 109.177C89.4364 106.669 91.0504 103.157 93.4257 99.2034C94.6134 97.1969 95.9781 95.0872 97.5464 92.9479C99.0911 90.7939 100.869 88.6103 102.785 86.4121C103.774 85.3498 104.748 84.2433 105.825 83.181C106.357 82.6499 106.891 82.1335 107.43 81.5876C107.977 81.0565 108.542 80.5548 109.113 80.0385C111.354 77.9435 113.824 76.0255 116.315 74.1518C117.605 73.2813 118.871 72.3666 120.189 71.5404C120.848 71.1273 121.508 70.7142 122.17 70.3011L123.159 69.7109L124.175 69.1503C125.525 68.4126 126.841 67.6602 128.225 67.0553C129.59 66.4061 130.916 65.757 132.294 65.2259C133.65 64.68 134.972 64.1194 136.313 63.7063C137.653 63.2784 138.935 62.7767 140.233 62.4817C141.531 62.1423 142.771 61.7588 143.995 61.4932C145.226 61.2572 146.413 61.0063 147.554 60.785C148.697 60.5784 149.802 60.4605 150.839 60.3129C151.888 60.1949 152.874 60.0326 153.818 60.0031C155.695 59.8998 157.318 59.767 158.663 59.7966C160.009 59.7966 161.067 59.8556 161.776 59.8703C162.495 59.8998 162.875 59.9146 162.875 59.9146C162.875 59.9146 162.505 60.0031 161.809 60.2096C161.118 60.3719 160.106 60.667 158.815 60.9621C158.172 61.0949 157.467 61.3014 156.701 61.5374C155.934 61.7735 155.109 61.9948 154.228 62.2309C153.346 62.4522 152.423 62.7768 151.444 63.1013C150.479 63.4259 149.448 63.7062 148.39 64.0898C147.352 64.4734 146.255 64.8717 145.124 65.2701C144.001 65.6832 142.87 66.1849 141.686 66.657C140.503 67.1143 139.329 67.6749 138.117 68.2208C137.515 68.5011 136.893 68.752 136.291 69.0618C135.686 69.3569 135.078 69.652 134.451 69.9765C133.219 70.5814 131.993 71.2601 130.76 71.9387C129.497 72.6027 128.291 73.3551 127.046 74.0928C125.785 74.7862 124.61 75.6566 123.362 76.4238C122.147 77.2058 120.968 78.0762 119.757 78.9172C117.4 80.6434 115.066 82.4433 112.868 84.317C110.64 86.1612 108.561 88.1235 106.548 90.0119C104.579 91.9594 102.669 93.8479 100.956 95.7511C99.2165 97.61 97.6394 99.4247 96.1817 101.151C94.7432 102.862 93.4685 104.485 92.331 105.931C91.2171 107.377 90.2331 108.646 89.4629 109.723C88.6928 110.8 88.0717 111.641 87.6822 112.246C87.2735 112.836 87.0596 113.146 87.0596 113.146" fill="#F9A97B"/>
<path d="M162.875 113.146C162.875 113.146 162.663 112.836 162.254 112.246C161.856 111.641 161.233 110.8 160.472 109.723C159.703 108.646 158.715 107.377 157.605 105.931C156.472 104.485 155.193 102.862 153.744 101.151C152.306 99.4247 150.716 97.61 148.975 95.7511C147.268 93.8479 145.356 91.9594 143.398 90.0119C141.375 88.1235 139.296 86.1612 137.068 84.317C134.861 82.4433 132.542 80.6434 130.174 78.9172C128.978 78.0762 127.79 77.2058 126.564 76.4238C125.32 75.6566 124.152 74.7862 122.89 74.0928C121.646 73.3551 120.431 72.6027 119.187 71.9387C117.943 71.2601 116.719 70.5814 115.475 69.9765C114.863 69.652 114.25 69.3569 113.647 69.0618C113.044 68.752 112.421 68.5011 111.819 68.2208C110.608 67.6749 109.433 67.1143 108.246 66.657C107.071 66.1849 105.935 65.6832 104.804 65.2701C103.675 64.8717 102.585 64.4734 101.536 64.0898C100.488 63.7062 99.4526 63.4259 98.4833 63.1013C97.514 62.7768 96.5904 62.4522 95.7096 62.2309C94.8273 61.9948 94.0011 61.7735 93.231 61.5374C92.4697 61.3014 91.7645 61.0949 91.1153 60.9621C89.8347 60.667 88.8182 60.3719 88.1277 60.2096C87.4314 60.0031 87.0596 59.9146 87.0596 59.9146C87.0596 59.9146 87.4402 59.8998 88.1558 59.8703C88.8698 59.8556 89.9277 59.7966 91.2688 59.7966C92.6187 59.767 94.2431 59.8998 96.1168 60.0031C97.0537 60.0326 98.0481 60.1949 99.0911 60.3129C100.136 60.4605 101.25 60.5784 102.386 60.785C103.523 61.0063 104.711 61.2572 105.935 61.4932C107.169 61.7588 108.404 62.1423 109.703 62.4817C111.002 62.7767 112.282 63.2784 113.619 63.7063C114.973 64.1194 116.286 64.68 117.647 65.2259C119.01 65.757 120.347 66.4061 121.711 67.0553C123.083 67.6602 124.411 68.4126 125.757 69.1503C126.434 69.5339 127.113 69.9027 127.76 70.3011C128.424 70.7142 129.09 71.1273 129.746 71.5404C131.056 72.3666 132.331 73.2813 133.622 74.1518C136.123 76.0255 138.581 77.9435 140.828 80.0385C141.385 80.5548 141.97 81.0565 142.507 81.5876C143.041 82.1335 143.579 82.6499 144.101 83.181C145.18 84.2433 146.154 85.3498 147.148 86.4121C149.059 88.6103 150.839 90.7939 152.39 92.9479C153.958 95.0872 155.323 97.1969 156.511 99.2034C158.882 103.157 160.506 106.669 161.494 109.177C162.008 110.401 162.328 111.419 162.555 112.083C162.784 112.777 162.875 113.146 162.875 113.146" fill="#F9A97B"/>
<path d="M90.1133 196.474C90.1133 196.474 90.2106 196.105 90.4379 195.412C90.6695 194.733 90.9852 193.73 91.5001 192.491C92.4886 189.982 94.113 186.501 96.4795 182.517C97.6671 180.54 99.0304 178.43 100.599 176.291C102.148 174.122 103.93 171.953 105.847 169.755C106.835 168.678 107.815 167.557 108.886 166.524C109.415 166.008 109.952 165.462 110.491 164.931C111.029 164.4 111.605 163.883 112.166 163.382C114.412 161.272 116.876 159.354 119.373 157.48C120.667 156.595 121.934 155.695 123.247 154.869C123.905 154.456 124.569 154.043 125.228 153.644L126.22 153.054L127.233 152.493C128.577 151.741 129.91 151.003 131.282 150.398C132.642 149.735 133.979 149.071 135.342 148.569C136.708 148.023 138.024 147.462 139.37 147.035C140.708 146.607 141.987 146.12 143.296 145.81C144.587 145.471 145.824 145.087 147.053 144.822C148.288 144.586 149.467 144.349 150.609 144.113C151.744 143.922 152.859 143.789 153.902 143.641C154.951 143.523 155.934 143.361 156.876 143.331C158.754 143.228 160.374 143.11 161.726 143.125C163.065 143.125 164.12 143.199 164.834 143.199C165.557 143.228 165.929 143.243 165.929 143.243C165.929 143.243 165.566 143.346 164.867 143.538C164.175 143.715 163.158 143.995 161.873 144.29C161.229 144.423 160.528 144.63 159.764 144.866C158.996 145.102 158.167 145.308 157.285 145.559C156.398 145.795 155.479 146.12 154.505 146.415C153.541 146.754 152.502 147.035 151.453 147.418C150.408 147.802 149.318 148.2 148.185 148.613C147.064 149.012 145.922 149.513 144.753 149.985C143.564 150.428 142.385 151.003 141.171 151.549C140.577 151.83 139.945 152.08 139.342 152.39C138.74 152.7 138.127 152.995 137.515 153.32C136.276 153.895 135.051 154.588 133.812 155.267C132.567 155.916 131.348 156.683 130.1 157.421C128.847 158.129 127.673 158.985 126.425 159.752C125.199 160.549 124.022 161.419 122.815 162.246C120.448 163.987 118.129 165.772 115.929 167.66C113.698 169.504 111.614 171.452 109.6 173.355C107.633 175.288 105.731 177.176 104.019 179.08C102.279 180.938 100.687 182.768 99.2487 184.479C97.797 186.191 96.5164 187.814 95.3936 189.259C94.2797 190.72 93.2868 191.989 92.5211 193.066C91.7554 194.128 91.1342 194.984 90.7344 195.574C90.3361 196.164 90.1133 196.474 90.1133 196.474" fill="#F9A97B"/>
<path d="M165.929 196.474C165.929 196.474 165.717 196.164 165.315 195.574C164.919 194.984 164.296 194.128 163.529 193.066C162.76 191.989 161.772 190.72 160.668 189.259C159.528 187.814 158.244 186.191 156.803 184.479C155.36 182.768 153.777 180.938 152.037 179.08C150.32 177.176 148.412 175.288 146.45 173.355C144.436 171.452 142.353 169.504 140.131 167.66C137.922 165.772 135.593 163.987 133.241 162.246C132.025 161.419 130.851 160.549 129.626 159.752C128.383 158.985 127.213 158.129 125.951 157.421C124.699 156.683 123.492 155.916 122.235 155.267C120.996 154.588 119.771 153.895 118.536 153.32C117.919 152.995 117.307 152.7 116.699 152.39C116.097 152.08 115.475 151.83 114.871 151.549C113.666 151.003 112.487 150.428 111.308 149.985C110.125 149.513 108.988 149.012 107.865 148.613C106.738 148.2 105.647 147.802 104.598 147.418C103.551 147.035 102.515 146.754 101.546 146.415C100.572 146.12 99.6426 145.795 98.7619 145.559C97.8796 145.308 97.0534 145.102 96.2936 144.866C95.5323 144.63 94.8182 144.423 94.1779 144.29C92.887 143.995 91.8763 143.715 91.18 143.538C90.4895 143.346 90.1133 143.243 90.1133 143.243C90.1133 143.243 90.5028 143.228 91.2168 143.199C91.9324 143.199 92.9799 143.125 94.3254 143.125C95.671 143.11 97.2953 143.228 99.1691 143.331C100.116 143.361 101.1 143.523 102.148 143.641C103.192 143.789 104.302 143.922 105.438 144.113C106.575 144.349 107.772 144.586 108.998 144.822C110.222 145.087 111.46 145.471 112.756 145.81C114.055 146.12 115.34 146.607 116.682 147.035C118.021 147.462 119.345 148.023 120.699 148.569C122.073 149.071 123.409 149.735 124.764 150.398C126.146 151.003 127.469 151.741 128.818 152.493C129.497 152.848 130.163 153.231 130.823 153.644C131.482 154.043 132.14 154.456 132.804 154.869C134.117 155.695 135.388 156.595 136.679 157.48C139.175 159.354 141.639 161.272 143.88 163.382C144.446 163.883 145.017 164.385 145.569 164.931C146.102 165.462 146.636 166.008 147.166 166.524C148.243 167.557 149.221 168.678 150.208 169.755C152.121 171.953 153.902 174.122 155.447 176.291C157.015 178.43 158.384 180.54 159.573 182.517C161.943 186.501 163.552 189.982 164.547 192.491C165.063 193.73 165.382 194.733 165.622 195.412C165.836 196.105 165.929 196.474 165.929 196.474" fill="#F9A97B"/>
<path d="M203.493 103.821C203.48 103.851 203.465 103.88 203.465 103.88V103.924C202.177 110.327 199.429 116.199 195.559 121.157C199.448 116.17 202.217 110.268 203.493 103.821ZM195.55 121.171C195.526 121.201 195.513 121.216 195.503 121.23C195.513 121.216 195.526 121.201 195.55 121.171ZM195.457 121.289C195.448 121.304 195.439 121.304 195.43 121.319C195.439 121.304 195.448 121.304 195.457 121.289ZM197.192 137.459C197.213 137.474 197.224 137.489 197.239 137.518C197.224 137.489 197.213 137.474 197.192 137.459ZM197.263 137.563C197.275 137.592 197.298 137.607 197.323 137.636C197.298 137.607 197.285 137.592 197.263 137.563ZM197.328 137.636C200.718 142.726 203.021 148.598 203.883 154.913C203.889 154.942 203.893 154.972 203.903 155.001C203.039 148.642 200.733 142.741 197.328 137.636V137.636ZM170.281 209.427C170.091 209.973 169.892 210.504 169.682 211.021C169.892 210.504 170.091 209.973 170.281 209.427Z" fill="white"/>
<path d="M196.312 71.3337C201.313 78.1794 204.274 86.6184 204.274 95.7509C204.274 98.5541 203.995 101.284 203.466 103.924C203.466 103.924 203.481 103.851 203.494 103.821C204.004 101.21 204.274 98.5246 204.274 95.7509C204.274 86.6184 201.324 78.1794 196.312 71.3337ZM203.883 154.913C204.144 156.772 204.274 158.675 204.274 160.593C204.274 172.765 199.031 183.697 190.679 191.266C199.031 183.697 204.274 172.765 204.274 160.593C204.274 158.705 204.144 156.846 203.904 155.001C203.894 154.972 203.889 154.942 203.883 154.913ZM170.968 207.303C170.968 207.318 170.959 207.318 170.959 207.318C170.959 207.318 170.968 207.318 170.968 207.303ZM170.95 207.377C170.745 208.07 170.524 208.749 170.282 209.428C170.524 208.749 170.745 208.07 170.95 207.377ZM161.651 223.739C161.633 223.768 161.614 223.798 161.586 223.812C161.614 223.798 161.633 223.768 161.651 223.739ZM161.551 223.857C153.992 231.986 143.212 237.061 131.247 237.061C124.56 237.061 118.25 235.482 112.654 232.664C118.24 235.482 124.56 237.061 131.242 237.061C143.212 237.061 153.992 231.986 161.551 223.857" fill="#E2925B"/>
<path d="M190.112 64.5766C189.611 91.2806 184.462 139.348 157.134 178.681C158.023 179.994 158.83 181.278 159.574 182.517C161.943 186.5 163.553 189.982 164.547 192.49C165.064 193.73 165.382 194.733 165.623 195.412C165.837 196.105 165.93 196.474 165.93 196.474C165.93 196.474 165.717 196.164 165.316 195.574C164.919 194.984 164.297 194.128 163.529 193.066C162.761 191.989 161.772 190.72 160.669 189.259C159.528 187.814 158.245 186.191 156.803 184.479C156.139 183.697 155.444 182.886 154.72 182.06C142.117 199.144 125.117 214.385 102.215 225.184C105.272 228.179 108.793 230.717 112.655 232.664C118.251 235.482 124.561 237.061 131.247 237.061C143.212 237.061 153.993 231.986 161.551 223.857C161.56 223.842 161.573 223.827 161.586 223.812C161.614 223.798 161.634 223.768 161.651 223.739C165.049 220.065 167.795 215.757 169.683 211.021C169.893 210.505 170.092 209.973 170.282 209.428C170.524 208.749 170.745 208.07 170.95 207.377L170.959 207.318C170.959 207.318 170.968 207.318 170.968 207.303C171.573 205.252 172.016 203.098 172.296 200.915C179.269 199.292 185.557 195.913 190.679 191.266C199.031 183.697 204.274 172.765 204.274 160.593C204.274 158.675 204.145 156.772 203.883 154.913C203.022 148.598 200.719 142.726 197.328 137.636H197.324C197.299 137.607 197.275 137.592 197.264 137.563C197.259 137.548 197.25 137.533 197.24 137.518C197.225 137.489 197.213 137.474 197.193 137.459C194.817 133.933 191.918 130.806 188.609 128.179C191.138 126.173 193.426 123.871 195.431 121.319C195.44 121.304 195.449 121.304 195.458 121.289C195.477 121.275 195.487 121.245 195.503 121.23C195.514 121.216 195.527 121.201 195.551 121.171L195.56 121.157C199.429 116.199 202.178 110.327 203.466 103.924C203.996 101.284 204.274 98.5541 204.274 95.7509C204.274 86.6184 201.313 78.1794 196.312 71.3337C194.493 68.8551 192.415 66.5831 190.112 64.5766" fill="#F29D5E"/>
<path d="M157.133 178.681C156.342 179.817 155.535 180.938 154.719 182.06C155.444 182.886 156.139 183.697 156.803 184.479C158.244 186.191 159.528 187.814 160.668 189.259C161.772 190.72 162.76 191.989 163.529 193.066C164.296 194.128 164.919 194.984 165.316 195.574C165.717 196.164 165.929 196.474 165.929 196.474C165.929 196.474 165.836 196.105 165.622 195.412C165.382 194.733 165.063 193.73 164.547 192.491C163.552 189.982 161.943 186.501 159.573 182.517C158.83 181.278 158.023 179.994 157.133 178.681" fill="#FAB78E"/>
</svg>
