<svg width="250" height="250" viewBox="0 0 250 250" fill="none" xmlns="http://www.w3.org/2000/svg">
<path d="M250 50.5823C250 59.3307 243.264 66.471 234.697 67.1201V177.796C234.697 186.972 227.26 194.408 218.091 194.408H103.24C94.0641 194.408 86.6331 186.972 86.6331 177.796V67.1201C78.0868 66.471 71.3359 59.3307 71.3359 50.5823C71.3359 41.4355 78.764 34 87.927 34H233.409C242.572 34 250 41.4355 250 50.5823" fill="#E17C40"/>
<path d="M220.645 50.5823C220.645 41.4355 213.211 34 204.048 34H58.5708C49.4034 34 41.9797 41.4355 41.9797 50.5823C41.9797 59.3159 48.7174 66.471 57.2725 67.1201V177.796C57.2725 186.972 64.705 194.408 73.8827 194.408H188.733C197.902 194.408 205.339 186.972 205.339 177.796V67.1201C213.893 66.471 220.645 59.3159 220.645 50.5823Z" fill="#F8A173"/>
<path d="M229.144 50.5823C229.144 59.3307 222.402 66.471 213.853 67.1201V177.796C213.853 186.972 206.415 194.408 197.237 194.408H82.3832C73.2143 194.408 65.7818 186.972 65.7818 177.796V67.1201C57.2163 66.471 50.4802 59.3307 50.4802 50.5823C50.4802 41.4355 57.9127 34 67.0712 34H212.553C221.716 34 229.144 41.4355 229.144 50.5823Z" fill="#F49F71"/>
<path d="M224.161 76.5472C219.094 76.5472 214.859 79.4684 213.853 83.3926V177.796C213.853 178.74 213.769 179.669 213.62 180.569V192.106C213.62 192.903 213.741 193.67 214 194.408H218.091C227.26 194.408 234.697 186.972 234.697 177.796V85.1776C234.697 82.8024 233.515 80.6485 231.612 79.0699C229.706 77.5061 227.065 76.5472 224.161 76.5472Z" fill="#E58E52"/>
<path d="M213.853 83.3928C213.699 83.9682 213.62 84.573 213.62 85.1778V180.57C213.769 179.67 213.853 178.74 213.853 177.796V83.3928" fill="#F6AF84"/>
<path d="M108.903 79.6601C108.903 86.5497 103.316 92.1558 96.4262 92.1558C89.5366 92.1558 83.9453 86.5497 83.9453 79.6601C83.9453 72.7705 89.5366 67.1793 96.4262 67.1793C103.316 67.1793 108.903 72.7705 108.903 79.6601Z" fill="#F9A97B"/>
<path d="M168.736 151.698C168.736 158.588 163.149 164.164 156.265 164.164C149.37 164.164 143.783 158.588 143.783 151.698C143.783 144.794 149.37 139.217 156.265 139.217C163.149 139.217 168.736 144.794 168.736 151.698Z" fill="#F9A97B"/>
<path d="M208.024 72.6674C208.024 81.3863 201.286 88.5266 192.727 89.1757V199.866C192.727 209.043 185.29 216.478 176.122 216.478H61.2673C52.0984 216.478 44.6615 209.043 44.6615 199.866V89.1757C36.1064 88.5266 29.3584 81.3863 29.3584 72.6674C29.3584 63.4912 36.785 56.0705 45.9509 56.0705H191.433C200.602 56.0705 208.024 63.4912 208.024 72.6674" fill="#EE8B4A"/>
<path d="M178.664 72.6674C178.664 63.4912 171.24 56.0705 162.073 56.0705H16.5911C7.42808 56.0705 0 63.4912 0 72.6674C0 81.3863 6.73613 88.5266 15.3016 89.1757V199.866C15.3016 209.043 22.7341 216.478 31.9074 216.478H146.761C155.93 216.478 163.361 209.043 163.361 199.866V89.1757C171.928 88.5266 178.664 81.3863 178.664 72.6674" fill="#F8A173"/>
<path d="M187.174 72.6674C187.174 81.3863 180.438 88.5266 171.872 89.1757V199.866C171.872 209.043 164.44 216.478 155.271 216.478H40.4201C31.2439 216.478 23.801 209.043 23.801 199.866V89.1757C15.2518 88.5266 8.51562 81.3863 8.51562 72.6674C8.51562 63.4912 15.9437 56.0705 25.1008 56.0705H170.587C179.75 56.0705 187.174 63.4912 187.174 72.6674Z" fill="#F9B17D"/>
<path d="M182.186 98.6176C177.121 98.6176 172.884 101.539 171.872 105.448V199.866C171.872 200.81 171.799 201.74 171.65 202.64V214.177C171.65 214.973 171.771 215.755 172.026 216.478H176.123C185.29 216.478 192.727 209.043 192.727 199.866V107.263C192.727 104.873 191.545 102.704 189.642 101.14C187.741 99.5766 185.095 98.6176 182.186 98.6176" fill="#F29D5E"/>
<path d="M171.872 105.448C171.723 106.038 171.65 106.628 171.65 107.263V202.64C171.799 201.74 171.872 200.811 171.872 199.866V105.448Z" fill="#FABE90"/>
<path d="M23.8008 165.064V199.866C23.8008 209.043 31.2436 216.478 40.4199 216.478H99.9844C62.0519 205.753 38.2394 184.213 23.8008 165.064" fill="#FABE90"/>
<path d="M66.9327 101.73C66.9327 108.62 61.3414 114.211 54.4503 114.211C47.5667 114.211 41.9797 108.62 41.9797 101.73C41.9797 94.8261 47.5667 89.2494 54.4503 89.2494C61.3414 89.2494 66.9327 94.8261 66.9327 101.73Z" fill="#F9A97B"/>
<path d="M126.771 173.768C126.771 180.643 121.178 186.249 114.284 186.249C107.399 186.249 101.812 180.643 101.812 173.768C101.812 166.879 107.399 161.273 114.284 161.273C121.178 161.273 126.771 166.879 126.771 173.768Z" fill="#F9A97B"/>
</svg>
