<svg width="250" height="250" viewBox="0 0 250 250" fill="none" xmlns="http://www.w3.org/2000/svg">
<path d="M80.8262 5.93768C90.1852 3.77384 103.386 5.72279 112.798 7.21312C121.644 8.61747 130.107 11.4405 138.25 15.1376C164.474 27.0316 186.213 49.057 197.089 75.5677C214.644 118.329 221.708 177.555 181.068 209.526C166.208 221.219 148.496 229.96 129.971 234.016C113.04 237.741 95.7925 239.776 78.423 239.218C63.471 238.745 40.6718 235.549 31.9677 221.448C24.0102 208.551 49.2871 210.199 59.3784 204.352C107.217 176.566 138.886 127.299 114.948 72.888C110.858 63.6021 105.243 46.9647 97.5638 40.0576C88.9743 32.3194 60.0088 34.5836 63.6917 21.6578C66.3084 12.4436 72.7183 7.81493 80.8262 5.93768" fill="#EE8B4A"/>
<path d="M111.684 142.346L208.955 175.477C222.196 146.745 219.903 110.891 203.982 83.5492C176.898 93.8096 149.8 104.041 122.695 114.302C122.279 114.431 115.379 117.411 115.172 117.139C115.172 117.139 118.877 122.212 111.684 142.346Z" fill="#E78244"/>
<path d="M111.684 142.346L111.228 143.707L208.496 176.824C209.184 177.068 209.944 176.724 210.245 176.079C216.149 163.297 219 149.124 219 134.937C219 116.724 214.3 98.4241 205.215 82.833C204.871 82.2311 204.126 81.9732 203.481 82.2168C176.397 92.4771 149.284 102.709 122.187 112.955C122.134 112.984 122.081 112.998 122.008 113.012C121.485 113.242 119.846 113.929 118.25 114.589C117.449 114.904 116.663 115.219 116.05 115.434C115.753 115.534 115.492 115.62 115.308 115.678C115.222 115.706 115.148 115.721 115.118 115.735H115.11L115.244 116.437V115.721C115.133 115.721 115.11 115.735 115.11 115.735L115.244 116.437V115.721V116.982L115.573 115.778C115.401 115.721 115.308 115.721 115.244 115.721V116.982L115.573 115.778L115.213 117.082L115.902 115.907C115.772 115.835 115.664 115.792 115.573 115.778L115.213 117.082L115.902 115.907L115.194 117.111L116.331 116.294C116.196 116.107 116.037 115.979 115.902 115.907L115.194 117.111L116.331 116.294L115.171 117.139L114.085 118.042L115.171 117.139L114.032 117.999L114.085 118.042L115.171 117.139L114.032 117.999L115.159 117.139L114.018 117.956L114.032 117.999L115.159 117.139L114.018 117.956L114.763 117.426L113.991 117.942L114.018 117.956L114.763 117.426L113.991 117.942L114.211 117.798L113.991 117.927V117.942L114.211 117.798L113.991 117.927C113.991 117.927 114.032 117.985 114.095 118.157C114.293 118.615 114.699 119.862 114.699 122.356C114.699 125.924 113.842 132.057 110.336 141.873C110.21 142.231 110.238 142.618 110.4 142.976C110.561 143.306 110.858 143.578 111.228 143.707L111.684 142.346L113.032 142.833C116.61 132.802 117.552 126.382 117.552 122.356C117.552 120.278 117.304 118.845 117.02 117.87C116.736 116.91 116.42 116.423 116.331 116.294C115.861 115.649 114.974 115.506 114.329 115.979C113.694 116.437 113.554 117.34 114.018 117.956C114.158 118.157 114.32 118.286 114.465 118.372C114.671 118.486 114.835 118.529 114.951 118.544C115.078 118.572 115.167 118.572 115.244 118.572C115.492 118.572 115.62 118.544 115.762 118.515C116.014 118.458 116.272 118.372 116.574 118.271C117.623 117.913 119.188 117.283 120.558 116.724C121.247 116.437 121.874 116.165 122.361 115.979C122.594 115.878 122.801 115.792 122.947 115.735C123.019 115.692 123.082 115.663 123.132 115.649L123.191 115.62H123.199C150.287 105.374 177.4 95.1569 204.498 84.8965L203.982 83.5495L202.75 84.266C211.563 99.3986 216.149 117.211 216.149 134.937C216.149 148.752 213.354 162.494 207.651 174.875L208.955 175.477L209.413 174.13L112.149 140.999L111.684 142.346L113.032 142.833L111.684 142.346" fill="#E78244"/>
<path d="M115.665 71.5552C116.449 71.7558 117.331 71.5838 118.557 70.9246C121.55 69.377 124.097 67.0411 126.921 65.2068C131.14 62.4985 135.354 59.7758 139.566 57.0674C147.909 51.6936 156.249 46.3055 164.604 40.9317C164.89 40.7454 169.92 37.6072 169.877 37.5212C160.835 19.6659 142.164 6.72568 122.348 3.87399C121.779 3.78801 115.777 24.5093 115.159 26.4439C112.73 34.0675 110.301 41.6912 107.866 49.3148C106.046 55.0039 103.527 59.6325 108.219 64.6623C109.795 66.3533 111.598 67.8293 113.135 69.5775C114.077 70.638 114.816 71.3116 115.665 71.5552" fill="#E78244"/>
<path d="M115.664 71.5551L115.294 72.9165C115.62 73.0168 115.967 73.0598 116.312 73.0598C116.789 73.0598 117.268 72.9737 117.749 72.8161C118.232 72.6728 118.709 72.4579 119.224 72.1999C120.827 71.3545 122.269 70.3513 123.649 69.3195C125.029 68.3021 126.353 67.2847 127.696 66.4105C131.906 63.6878 136.123 60.9937 140.339 58.2566C148.682 52.8828 157.022 47.5091 165.362 42.1353C165.391 42.1209 165.506 42.0493 165.663 41.949C166.236 41.5908 167.483 40.8027 168.587 40.1005C169.146 39.7566 169.661 39.4269 170.048 39.1546C170.249 39.0257 170.407 38.911 170.55 38.8251C170.607 38.7677 170.679 38.7248 170.75 38.6818C170.779 38.6388 170.822 38.5958 170.894 38.5242C170.937 38.4955 170.994 38.4382 171.066 38.3235C171.094 38.2805 171.137 38.2088 171.195 38.0799C171.238 37.9652 171.295 37.8077 171.309 37.5211C171.309 37.3061 171.252 37.0911 171.152 36.8905C166.523 27.7336 159.43 19.8663 150.975 13.905C142.519 7.95796 132.697 3.9169 122.548 2.46956L122.348 2.45528C122.081 2.45528 121.865 2.51252 121.714 2.58417C121.422 2.7418 121.319 2.87085 121.233 2.95683C121.071 3.15746 121.018 3.25768 120.953 3.37232C120.836 3.58728 120.738 3.81656 120.63 4.08883C120.228 5.09194 119.657 6.7973 118.98 8.90383C117.984 12.0421 116.789 15.9971 115.79 19.3504C115.294 21.0127 114.843 22.5317 114.491 23.7068C114.149 24.8819 113.887 25.7273 113.793 26.0139C111.364 33.6375 108.938 41.2611 106.506 48.8704C105.997 50.4754 105.41 52.023 104.941 53.5994C104.472 55.147 104.113 56.7378 104.107 58.3714C104.107 59.5751 104.315 60.8218 104.808 62.0398C105.302 63.2722 106.082 64.4617 107.172 65.6511C108.844 67.428 110.634 68.8896 112.057 70.5089C112.563 71.0678 113.022 71.555 113.53 71.9706C114.041 72.3862 114.617 72.7445 115.294 72.9165L115.664 71.5551L116.034 70.165C115.86 70.1221 115.644 70.0074 115.339 69.7638C115.031 69.5202 114.65 69.1333 114.203 68.6174C112.563 66.7832 110.746 65.2928 109.263 63.6878C108.361 62.742 107.807 61.8392 107.456 60.9794C107.113 60.1052 106.964 59.2742 106.964 58.3714C106.964 57.1677 107.245 55.8492 107.678 54.4162C108.105 52.9689 108.687 51.4356 109.227 49.7446C111.662 42.121 114.085 34.5117 116.52 26.8881C116.601 26.6158 116.763 26.0856 116.988 25.3261C117.771 22.7037 119.321 17.4445 120.738 12.8589C121.449 10.5517 122.127 8.41652 122.644 6.8832C122.91 6.1237 123.136 5.50759 123.298 5.10635C123.379 4.90573 123.437 4.77667 123.46 4.73368H123.464L122.771 4.33247L123.365 4.84844C123.45 4.74813 123.46 4.73368 123.464 4.73368L122.771 4.33247L123.365 4.84844L122.405 4.01718L123.126 5.06339C123.262 4.96308 123.324 4.89143 123.365 4.84844L122.405 4.01718L123.126 5.06339L122.351 3.94553L122.833 5.22096C122.964 5.16364 123.054 5.12071 123.126 5.06339L122.351 3.94553L122.833 5.22096L122.348 3.91698V5.30689C122.541 5.30689 122.707 5.26395 122.833 5.22096L122.348 3.91698V5.30689V3.87388L122.143 5.29261C131.806 6.68264 141.23 10.5375 149.327 16.2409C157.423 21.9443 164.202 29.4675 168.601 38.1802L169.876 37.5211H168.443H169.862L168.587 36.9192C168.529 37.0482 168.458 37.2058 168.443 37.5211H169.862L168.587 36.9192L169.833 37.5067L168.802 36.5896C168.759 36.6469 168.687 36.7042 168.587 36.9192L169.833 37.5067L168.802 36.5896L169.633 37.3347L168.916 36.4749C168.902 36.4892 168.888 36.5036 168.802 36.5896L169.633 37.3347L168.916 36.4749L169.117 36.7185L168.931 36.4606L168.916 36.4749L169.117 36.7185L168.931 36.4606C168.916 36.4749 168.787 36.5752 168.63 36.6756C168.042 37.0625 166.896 37.8077 165.878 38.4525C165.362 38.7678 164.89 39.0687 164.531 39.2979C164.331 39.4126 164.173 39.4986 164.058 39.5703C163.944 39.6706 163.872 39.6992 163.829 39.7278C155.489 45.1016 147.139 50.5042 138.79 55.8636C134.573 58.5863 130.361 61.2947 126.145 64.0031C124.668 64.9775 123.302 66.0236 121.954 67.0267C120.612 68.0155 119.285 68.947 117.898 69.6635C117.503 69.8784 117.169 70.0074 116.907 70.0934C116.646 70.1794 116.448 70.1937 116.312 70.1937C116.204 70.1937 116.123 70.1937 116.037 70.165L115.664 71.5551" fill="#E78244"/>
<path d="M123.937 9.11863C123.631 9.11863 120.499 19.9378 120.17 20.9552C118.9 24.9533 117.629 28.9515 116.348 32.9353C115.401 35.916 114.077 38.352 116.537 40.9887C117.363 41.8772 118.308 42.651 119.111 43.5681C119.608 44.1127 119.993 44.471 120.441 44.5856C120.548 44.6286 120.661 44.6429 120.774 44.6429C121.108 44.6429 121.481 44.5139 121.954 44.2846C123.523 43.4535 124.857 42.2211 126.339 41.2753C128.553 39.8566 130.761 38.4237 132.969 37.0194C137.342 34.1963 141.712 31.3732 146.087 28.5502C146.242 28.4499 148.883 26.8163 148.854 26.7589C144.118 17.4014 134.325 10.6233 123.937 9.11863Z" fill="#EB9457"/>
<path d="M99.1415 173.471C100.024 173.585 100.841 174.13 101.818 175.291C104.199 178.099 105.802 181.524 107.907 184.548C111.043 189.048 114.181 193.519 117.321 198.033C123.531 206.917 129.738 215.816 135.947 224.73C136.159 225.03 139.964 230.275 139.878 230.376C123.329 244.663 99.0699 250.022 77.8427 244.677C77.2379 244.534 79.7529 221.104 79.9334 218.869C80.6284 210.156 81.3407 201.443 82.0429 192.73C82.5617 186.21 81.9268 180.492 88.7622 177.34C91.0565 176.265 93.4897 175.549 95.761 174.417C97.1582 173.743 98.1842 173.356 99.1415 173.471Z" fill="#E78244"/>
<path d="M99.1416 173.471L98.9611 174.875C99.1689 174.918 99.3494 174.975 99.6374 175.176C99.9255 175.348 100.289 175.692 100.728 176.208C101.837 177.512 102.792 179.016 103.737 180.578C104.693 182.14 105.636 183.774 106.74 185.35C109.868 189.85 113.013 194.35 116.151 198.835C122.361 207.748 128.571 216.647 134.772 225.532H134.781C134.816 225.604 134.894 225.704 135.02 225.876C135.438 226.478 136.376 227.753 137.187 228.914C137.592 229.487 137.968 230.032 138.243 230.419C138.376 230.619 138.486 230.791 138.552 230.877L138.584 230.949L138.594 230.963L139.17 230.648L138.575 230.934L138.594 230.963L139.17 230.648L138.575 230.934L139.702 230.404L138.522 230.805C138.548 230.863 138.567 230.891 138.575 230.934L139.702 230.404L138.522 230.805L139.815 230.376L138.486 230.662C138.502 230.719 138.512 230.762 138.522 230.805L139.815 230.376L138.486 230.662L139.855 230.347H138.449C138.454 230.49 138.468 230.591 138.486 230.662L139.855 230.347H138.449H139.868L138.522 229.931C138.468 230.089 138.453 230.247 138.453 230.347H139.868L138.522 229.931L139.878 230.347L138.79 229.43C138.657 229.587 138.567 229.774 138.522 229.931L139.878 230.347L138.79 229.43L139.878 230.376L138.945 229.286C126.903 239.69 110.606 245.293 94.4901 245.279C88.9744 245.279 83.486 244.634 78.1939 243.287L77.8515 244.648L78.7356 243.559C78.6081 243.473 78.4203 243.344 78.1939 243.287L77.8515 244.648L78.7356 243.559L77.8873 244.62L79.1053 244.032C79.0609 243.932 78.9821 243.774 78.7356 243.559L77.8873 244.62L79.1053 244.032L78.1767 244.476L79.1899 244.304C79.187 244.261 79.187 244.218 79.1053 244.032L78.1767 244.476L79.1899 244.304L78.9591 244.347L79.1899 244.304L78.9591 244.347L79.1899 244.304C79.1899 244.304 79.1812 244.118 79.1812 243.875C79.1812 242.957 79.303 240.994 79.4921 238.63C79.7802 235.061 80.2131 230.533 80.5914 226.707C80.782 224.801 80.9525 223.053 81.0872 221.72C81.2233 220.359 81.3222 219.399 81.358 218.983C82.0616 210.27 82.7595 201.558 83.4574 192.831C83.7197 189.506 83.7196 186.497 84.4031 184.161C84.7485 183 85.2342 181.968 85.9995 181.08C86.7575 180.163 87.8066 179.346 89.3571 178.629C91.5353 177.626 93.9814 176.881 96.3931 175.706C96.9792 175.42 97.4779 175.205 97.8748 175.061C98.2761 174.918 98.5741 174.875 98.7948 174.875H98.9611L99.1416 173.471L99.3265 172.052C99.1416 172.023 98.9654 172.009 98.7948 172.009C98.15 172.009 97.5467 172.167 96.9563 172.353C96.3659 172.554 95.7698 172.826 95.1321 173.141C93.0027 174.187 90.5779 174.932 88.1676 176.036C86.299 176.91 84.8689 177.97 83.8099 179.231C83.0175 180.177 82.4385 181.209 82.0244 182.284C81.4039 183.903 81.1373 185.594 80.9754 187.328C80.8163 189.047 80.7532 190.824 80.6199 192.616C79.9192 201.328 79.2128 210.041 78.5092 218.754C78.4734 219.212 78.31 220.774 78.1036 222.881C77.7884 226.062 77.3428 230.519 76.9788 234.546C76.7968 236.566 76.6333 238.486 76.5173 240.106C76.3997 241.725 76.3296 243.029 76.3296 243.875C76.3296 244.161 76.3295 244.39 76.3553 244.62C76.374 244.749 76.3825 244.878 76.447 245.064C76.4814 245.164 76.5172 245.293 76.6433 245.465C76.7064 245.565 76.7968 245.666 76.9315 245.78C77.0676 245.895 77.2567 246.01 77.5003 246.067C83.0246 247.457 88.7494 248.145 94.4901 248.145C111.263 248.131 128.187 242.341 140.812 231.436L140.964 231.278C141.1 231.121 141.193 230.949 141.242 230.791C141.294 230.619 141.307 230.476 141.307 230.347C141.307 230.204 141.289 230.118 141.279 230.046C141.242 229.903 141.216 229.845 141.193 229.788C141.153 229.688 141.126 229.645 141.1 229.587C141.046 229.501 141.004 229.43 140.954 229.358C140.761 229.057 140.451 228.584 140.071 228.04C139.504 227.237 138.8 226.248 138.22 225.446C137.926 225.045 137.665 224.672 137.468 224.4C137.277 224.128 137.142 223.927 137.115 223.913H137.124C130.914 215.014 124.704 206.1 118.493 197.216C115.348 192.716 112.211 188.216 109.074 183.731C108.074 182.284 107.155 180.693 106.182 179.088C105.216 177.497 104.18 175.864 102.909 174.359C102.364 173.729 101.831 173.198 101.247 172.811C100.665 172.41 99.9985 172.124 99.3207 172.052H99.3265L99.1416 173.471" fill="#E78244"/>
<path d="M179.062 166.807C177.586 168.326 176.282 170.032 175.25 171.508C171.74 176.537 167.67 181.18 163.571 185.723C153.841 196.513 142.542 206.129 130.318 214.168C132.591 217.407 134.852 220.645 137.124 223.913H137.115C137.142 223.927 137.277 224.128 137.468 224.4C137.665 224.672 137.926 225.045 138.22 225.446C138.701 226.119 139.273 226.922 139.779 227.638C151.935 222.795 163.213 215.959 173.373 207.06C179.105 202.031 184.049 196.141 187.073 189.105C188.348 186.167 191.802 177.77 192.361 171.336L179.062 166.807" fill="#F29D5E"/>
<path d="M186.557 162.895C184.794 162.895 183.118 163.583 181.584 164.643L192.375 168.326C192.146 166.177 191.401 164.5 189.81 163.712C188.706 163.153 187.617 162.895 186.557 162.895" fill="#EB9457"/>
<path d="M181.584 164.644C180.71 165.274 179.85 166.005 179.062 166.807L192.36 171.336C192.446 170.261 192.461 169.244 192.375 168.326L181.584 164.644Z" fill="#EB9457"/>
<path d="M127.918 215.716C124.253 218.037 120.512 220.216 116.707 222.265C110.741 225.446 104.558 228.226 98.2084 230.562C93.435 232.339 85.4001 236.208 79.6738 236.538C79.6638 236.595 79.6638 236.638 79.6538 236.695C82.6001 236.953 85.5764 237.068 88.5513 237.068C96.185 237.068 103.863 236.294 111.34 235.205C120.222 233.901 128.813 231.737 137.03 228.699C136.259 227.61 135.421 226.435 135.02 225.876C134.893 225.704 134.816 225.604 134.78 225.532H134.772C132.49 222.265 130.2 218.983 127.918 215.716" fill="#EB9457"/>
<path d="M130.319 214.168C129.528 214.684 128.72 215.214 127.918 215.716C130.201 218.983 132.491 222.265 134.773 225.532H134.781C134.817 225.603 134.894 225.704 135.02 225.876C135.422 226.435 136.26 227.61 137.031 228.699C137.954 228.355 138.864 228.011 139.779 227.638C139.274 226.922 138.702 226.119 138.22 225.446C137.927 225.045 137.666 224.672 137.468 224.4C137.277 224.127 137.143 223.927 137.115 223.912H137.124C134.853 220.645 132.591 217.407 130.319 214.168V214.168ZM77.7544 236.494C78.3892 236.566 79.0184 236.638 79.6547 236.695C79.6647 236.638 79.6647 236.595 79.6747 236.537C79.4024 236.566 79.1416 236.566 78.8851 236.566C78.4925 236.566 78.1141 236.537 77.7544 236.494Z" fill="#EB9457"/>
</svg>
