<svg width="250" height="250" viewBox="0 0 250 250" fill="none" xmlns="http://www.w3.org/2000/svg">
<path d="M250 124.769C250 140.747 244.556 155.146 235.807 165.326C231.41 170.461 226.143 174.518 220.33 177.159C216.421 178.914 212.245 180.036 207.908 180.405V180.552H45.249V69H207.908V69.1328C210.032 69.3246 212.112 69.6787 214.148 70.2098C229.832 74.3113 242.52 88.3862 247.61 106.828C247.934 107.95 248.2 109.1 248.451 110.266C249.454 114.884 250 119.752 250 124.769" fill="#DD7D42"/>
<path d="M248.451 110.266C246.651 111.726 244.866 113.231 243.154 114.839C236.766 120.859 230.776 125.492 221.511 124.238C210.814 122.747 201.401 116.418 190.646 115.076C181.115 113.88 173.03 117.761 164.355 121.006C150.059 126.347 136.648 127.852 126.32 115.297C122.72 110.9 119.002 105.014 112.629 105.102C106.034 105.176 100.28 110.31 93.6704 111.004C77.8693 112.626 72.6023 96.8843 74.594 84.1077L71.1121 83.1192C70.8908 83.7093 71.422 83.9749 70.6106 84.1667C68.3385 83.5913 66.0958 82.9421 63.8533 82.2782C57.3322 80.375 51.1062 81.3783 45.249 80.139V69H207.908V69.1327C227.412 70.8147 243.538 87.7076 248.451 110.266Z" fill="#A65A2B"/>
<path d="M247.61 106.828C245.824 108.274 244.069 109.75 242.387 111.343C235.999 117.362 230.009 121.98 220.743 120.726C210.047 119.251 200.634 112.922 189.879 111.564C180.363 110.369 172.263 114.264 163.588 117.495C149.291 122.836 135.881 124.341 125.568 111.8C121.953 107.404 118.235 101.517 111.862 101.606C105.267 101.665 99.5128 106.799 92.9032 107.492C77.1021 109.13 71.835 93.3878 73.8415 80.6112L70.3449 79.6079C70.1383 80.2128 70.6548 80.4784 69.8433 80.6849C67.586 80.08 65.3288 79.4457 63.0862 78.7817C56.8602 76.9523 50.8849 77.7932 45.249 76.7752V69.0001H207.908V69.1329C210.032 69.3246 212.112 69.6787 214.148 70.2099C229.832 74.3114 242.52 88.3863 247.61 106.828" fill="#BA6531"/>
<path d="M90.4988 124.769C90.4988 140.747 85.0546 155.146 76.3204 165.326C71.9091 170.461 66.6568 174.518 60.8291 177.159C55.9752 179.342 50.723 180.552 45.2494 180.552C20.2567 180.552 0 155.574 0 124.769C0 93.9779 20.2567 69 45.2494 69C70.242 69 90.4988 93.9779 90.4988 124.769Z" fill="#D77D48"/>
<path d="M86.0137 124.946C86.0137 139.331 81.1008 152.314 73.2372 161.461C69.2537 166.094 64.5177 169.753 59.2802 172.113C59.1621 172.172 59.0293 172.231 58.9113 172.275C54.6475 174.149 50.0445 175.182 45.2495 175.182C22.7503 175.182 4.5 152.697 4.5 124.946C4.5 121.685 4.75081 118.484 5.23768 115.371C8.86707 92.2075 25.4059 74.7097 45.2495 74.7097C67.7635 74.7097 86.0137 97.209 86.0137 124.946" fill="#EE8B4A"/>
<path d="M72.942 161.476C68.9585 166.123 64.2373 169.767 58.9998 172.143C57.0523 172.467 55.0753 172.63 53.0835 172.63C41.2954 172.63 30.2007 166.743 21.8649 156.017C7.95225 138.15 7.95225 109.071 21.8649 91.2043C33.1219 76.731 51.4607 76.731 62.7178 91.2043C71.865 102.963 71.865 122.084 62.7178 133.842C59.1031 138.49 54.3081 141.042 49.2033 141.042C44.0838 141.042 39.2889 138.49 35.6742 133.842C32.7235 130.036 31.1006 124.99 31.1006 119.605C31.1006 114.249 32.7235 109.189 35.6742 105.397C38.0938 102.269 41.3397 100.543 44.7773 100.543C46.5034 100.543 48.1559 100.971 49.705 101.812C51.2542 102.624 52.6705 103.833 53.8803 105.397C55.8868 107.994 56.9932 111.417 56.9932 115.076C56.9932 118.735 55.8868 122.172 53.8803 124.754C50.4132 129.18 44.8068 129.18 41.3397 124.754C39.9234 122.954 39.1562 120.534 39.1562 117.982C39.1562 115.43 39.9234 113.025 41.3397 111.21C42.0331 110.325 43.1249 110.325 43.8183 111.21C44.5117 112.095 44.5117 113.527 43.8183 114.412C43.0806 115.356 42.6675 116.625 42.6675 117.982C42.6675 119.325 43.0806 120.608 43.8183 121.552C45.8985 124.238 49.3067 124.238 51.4017 121.552C52.7443 119.826 53.4819 117.525 53.4819 115.076C53.4819 112.627 52.7443 110.325 51.4017 108.584C49.6313 106.327 47.2854 105.073 44.7773 105.073C42.2839 105.073 39.9234 106.327 38.1677 108.584C35.8661 111.535 34.6121 115.444 34.6121 119.605C34.6121 123.78 35.8661 127.705 38.1677 130.641C41.1184 134.418 45.0281 136.513 49.2033 136.513C53.3639 136.513 57.2883 134.418 60.239 130.641C64.0012 125.802 66.0815 119.369 66.0815 112.523C66.0815 105.678 64.0012 99.245 60.239 94.3911C50.3541 81.6882 34.2432 81.6882 24.3435 94.3911C11.8177 110.502 11.8177 136.719 24.3435 152.83C32.0301 162.686 42.2249 168.13 53.0835 168.13C60.1653 168.13 66.952 165.828 72.942 161.476" fill="#FAB987"/>
<path d="M5.23768 115.371C4.75081 118.484 4.5 121.685 4.5 124.946C4.5 152.697 22.7503 175.182 45.2495 175.182C50.0445 175.182 54.6475 174.149 58.9113 172.275C58.8523 172.246 58.7786 172.216 58.7196 172.187C56.8606 172.482 54.9869 172.63 53.0836 172.63C41.2955 172.63 30.2008 166.743 21.865 156.017C15.6685 148.065 12.231 137.855 11.567 127.439C9.19171 123.382 7.08188 119.354 5.23768 115.371V115.371ZM16.1111 134.654C17.5422 141.322 20.2864 147.593 24.3436 152.83C31.5286 162.051 40.9267 167.407 51.0034 168.056C35.8662 159.1 24.5502 147.121 16.1111 134.654" fill="#F29D5E"/>
<path d="M11.5671 127.439C12.2311 137.855 15.6686 148.065 21.8651 156.017C30.2009 166.743 41.2956 172.63 53.0837 172.63C54.987 172.63 56.8607 172.482 58.7197 172.187C56.0345 170.903 53.4674 169.531 51.0035 168.056C40.9268 167.407 31.5287 162.051 24.3437 152.83C20.2865 147.593 17.5423 141.322 16.1112 134.654C14.4883 132.264 12.9687 129.844 11.5671 127.439" fill="#FBC69A"/>
<path d="M214.149 70.2098C214.547 70.3131 214.931 70.4311 215.329 70.5491C215.344 70.5491 215.373 70.5639 215.388 70.5639C215.418 70.5639 215.432 70.5639 215.462 70.5786C215.639 70.6229 215.831 70.6966 216.022 70.7557C215.403 70.5639 214.783 70.3721 214.149 70.2098V70.2098ZM216.037 70.7557C216.067 70.7557 216.081 70.7704 216.111 70.7852C216.081 70.7704 216.067 70.7557 216.037 70.7557ZM216.155 70.8147C216.17 70.8147 216.185 70.8147 216.199 70.8147C216.185 70.8147 216.17 70.8147 216.155 70.8147ZM248.421 110.133C248.436 110.177 248.451 110.222 248.451 110.266C249.454 114.884 250 119.752 250 124.769C250 119.752 249.454 114.884 248.451 110.266C248.451 110.222 248.436 110.177 248.421 110.133Z" fill="white"/>
<path d="M248.451 110.266C246.651 111.726 244.866 113.231 243.155 114.84C237.489 120.18 232.119 124.429 224.506 124.429C223.547 124.429 222.544 124.356 221.511 124.238C217.159 123.618 213.013 122.216 208.897 120.667C203.984 140.717 194.895 162.066 178.534 180.552H207.908V180.405C212.246 180.036 216.421 178.914 220.331 177.159C226.144 174.518 231.411 170.461 235.807 165.326C244.556 155.146 250 140.747 250 124.769C250 119.752 249.454 114.884 248.451 110.266" fill="#E29055"/>
<path d="M215.329 70.5492C215.344 70.5492 215.373 70.5639 215.388 70.5639C215.373 70.5639 215.344 70.5492 215.329 70.5492ZM215.462 70.5787C230.54 75.108 242.667 88.9174 247.61 106.828C245.825 108.274 244.069 109.75 242.387 111.343C236.707 116.669 231.351 120.933 223.739 120.933C222.794 120.933 221.791 120.859 220.744 120.726C216.908 120.195 213.234 119.03 209.605 117.716C209.369 118.69 209.147 119.679 208.896 120.667C213.013 122.216 217.159 123.618 221.511 124.238C222.544 124.356 223.547 124.429 224.506 124.429C232.119 124.429 237.489 120.18 243.154 114.84C244.866 113.231 246.651 111.727 248.451 110.266C248.451 110.222 248.436 110.177 248.421 110.133C244.202 90.9387 231.838 75.8457 216.2 70.8147C216.185 70.8147 216.17 70.8147 216.155 70.8147C216.141 70.8 216.126 70.7852 216.111 70.7852C216.081 70.7705 216.067 70.7557 216.037 70.7557C216.022 70.7557 216.022 70.7557 216.022 70.7557C215.831 70.6967 215.639 70.6229 215.462 70.5787" fill="#B56E39"/>
<path d="M214.149 70.21C214.444 82.662 213.706 99.5402 209.605 117.717C213.234 119.03 216.908 120.195 220.744 120.726C221.791 120.859 222.794 120.933 223.739 120.933C231.352 120.933 236.707 116.669 242.387 111.343C244.069 109.75 245.825 108.274 247.61 106.828C242.668 88.9176 230.54 75.1082 215.462 70.5788C215.432 70.5641 215.418 70.5641 215.388 70.5641C215.373 70.5641 215.344 70.5493 215.329 70.5493C214.931 70.4313 214.547 70.3132 214.149 70.21" fill="#C5783F"/>
<path d="M97.905 156.976C97.905 156.135 98.5984 155.442 99.4393 155.442C100.28 155.442 100.974 156.135 100.974 156.976C100.974 157.832 100.28 158.525 99.4393 158.525C98.5984 158.525 97.905 157.832 97.905 156.976Z" fill="#BA6531"/>
<path d="M82.9448 171.11C82.9448 170.254 83.6235 169.561 84.4793 169.561C85.3202 169.561 86.0135 170.254 86.0135 171.11C86.0135 171.951 85.3202 172.63 84.4793 172.63C83.6235 172.63 82.9448 171.951 82.9448 171.11Z" fill="#BA6531"/>
<path d="M110.682 168.602C110.682 167.761 111.375 167.082 112.216 167.082C113.072 167.082 113.765 167.761 113.765 168.602C113.765 169.458 113.072 170.151 112.216 170.151C111.375 170.151 110.682 169.458 110.682 168.602Z" fill="#BA6531"/>
<path d="M121.747 156.976C121.747 156.135 122.44 155.442 123.296 155.442C124.137 155.442 124.816 156.135 124.816 156.976C124.816 157.832 124.137 158.525 123.296 158.525C122.44 158.525 121.747 157.832 121.747 156.976Z" fill="#BA6531"/>
<path d="M176.985 142.591C176.985 141.735 177.678 141.042 178.534 141.042C179.375 141.042 180.068 141.735 180.068 142.591C180.068 143.432 179.375 144.111 178.534 144.111C177.678 144.111 176.985 143.432 176.985 142.591Z" fill="#BA6531"/>
<path d="M166.849 171.11C166.849 170.254 167.542 169.561 168.383 169.561C169.239 169.561 169.917 170.254 169.917 171.11C169.917 171.951 169.239 172.63 168.383 172.63C167.542 172.63 166.849 171.951 166.849 171.11Z" fill="#BA6531"/>
<path d="M99.4395 141.042C99.4395 140.186 100.133 139.508 100.974 139.508C101.83 139.508 102.508 140.186 102.508 141.042C102.508 141.883 101.83 142.591 100.974 142.591C100.133 142.591 99.4395 141.883 99.4395 141.042Z" fill="#BA6531"/>
<path d="M137.873 172.629C137.873 171.789 138.566 171.11 139.407 171.11C140.248 171.11 140.941 171.789 140.941 172.629C140.941 173.485 140.248 174.179 139.407 174.179C138.566 174.179 137.873 173.485 137.873 172.629Z" fill="#BA6531"/>
<path d="M144.556 145.925C144.556 145.07 145.25 144.391 146.105 144.391C146.946 144.391 147.625 145.07 147.625 145.925C147.625 146.766 146.946 147.445 146.105 147.445C145.25 147.445 144.556 146.766 144.556 145.925Z" fill="#BA6531"/>
</svg>
