<svg width="250" height="250" viewBox="0 0 250 250" fill="none" xmlns="http://www.w3.org/2000/svg">
<path d="M238.33 147.009C238.33 180.925 188.791 208.439 127.7 208.439C124.189 208.439 120.722 208.336 117.314 208.159C79.4735 206.211 47.1357 193.657 30.0522 175.909C21.776 167.309 17.0552 157.454 17.0552 147.009C17.0552 145.932 17.2912 144.899 17.719 143.881C18.0436 143.1 18.5008 142.347 19.0909 141.624C19.9613 140.474 21.1414 139.382 22.5724 138.349C23.5609 137.626 24.697 136.903 25.9214 136.225C28.1638 135 30.7749 133.85 33.7107 132.773C34.5368 132.478 35.3778 132.183 36.263 131.902C38.4169 131.165 40.7183 130.501 43.1967 129.881C50.337 128.022 58.6575 126.473 67.7598 125.219C72.1414 124.614 76.7293 124.098 81.4354 123.656C81.6272 123.626 81.819 123.611 82.0255 123.582C88.0593 123.021 94.344 122.579 100.747 122.239C116.473 121.443 132.996 121.339 148.899 121.988C157.5 122.328 165.924 122.888 173.949 123.656C178.065 124.039 182.049 124.496 185.914 124.998C186.474 125.072 187.05 125.146 187.61 125.219C196.713 126.473 205.033 128.022 212.188 129.881C214.652 130.501 216.968 131.165 219.136 131.902C224.875 133.791 229.537 135.93 232.827 138.349C234.229 139.382 235.409 140.474 236.309 141.624C236.869 142.347 237.341 143.1 237.666 143.881C238.094 144.899 238.33 145.932 238.33 147.009" fill="#995531"/>
<path d="M23.7232 137.553C23.3249 137.803 22.9265 138.069 22.5724 138.349C21.1414 139.382 19.9613 140.474 19.0909 141.624C18.5008 142.347 18.0436 143.1 17.719 143.882C17.2912 144.899 17.0552 145.932 17.0552 147.009C17.0552 157.454 21.776 167.309 30.0522 175.909C47.1357 193.657 79.4735 206.211 117.314 208.159C79.9603 196.194 50.3961 167.619 29.8162 141.3C27.6328 140.09 25.5968 138.851 23.7232 137.553" fill="#A96940"/>
<path d="M242.048 116.619C242.048 140.695 190.841 160.198 127.7 160.198C64.5439 160.198 13.3374 140.695 13.3374 116.619C13.3374 92.5572 64.5439 46.2044 127.7 46.2044C190.841 46.2044 242.048 92.5572 242.048 116.619Z" fill="#D47840"/>
<path d="M242.048 112.414C242.048 136.476 190.841 155.979 127.7 155.979C64.5439 155.979 13.3374 136.476 13.3374 112.414C13.3374 88.3527 64.5439 41.9999 127.7 41.9999C190.841 41.9999 242.048 88.3527 242.048 112.414Z" fill="#F9B17D"/>
<path d="M238.419 116.619C238.419 140.695 187.227 160.198 124.056 160.198C60.9148 160.198 9.7085 140.695 9.7085 116.619C9.7085 92.5572 60.9148 46.2044 124.056 46.2044C187.227 46.2044 238.419 92.5572 238.419 116.619Z" fill="#EE8B4A"/>
<path d="M86.3038 75.2523C48.065 75.2523 17.0552 103.312 17.0552 117.887C17.0552 132.463 48.065 144.28 86.3038 144.28C124.557 144.28 155.553 132.463 155.553 117.887C155.553 103.312 124.557 75.2523 86.3038 75.2523Z" fill="#F29D5E"/>
<path d="M34.124 127.949C34.2273 137.361 26.6739 145.091 17.2469 145.18C7.83475 145.298 0.104315 137.745 0.0010464 128.318C-0.102222 118.891 7.45118 111.16 16.8781 111.072C26.305 110.968 34.0207 118.522 34.124 127.949Z" fill="#EE8B4A"/>
<path d="M61.9619 144.073C62.0504 152.881 54.9839 160.109 46.1766 160.198C37.3545 160.286 30.126 153.22 30.0374 144.413C29.9489 135.605 37.0154 128.377 45.8228 128.273C54.6301 128.185 61.8586 135.251 61.9619 144.073" fill="#E78244"/>
<path d="M97.8551 151.435C97.9583 161.334 90.0215 169.448 80.1225 169.566C70.2235 169.669 62.1094 161.717 62.0062 151.833C61.8882 141.934 69.8398 133.82 79.724 133.717C89.6378 133.599 97.737 141.521 97.8551 151.435Z" fill="#EE8B4A"/>
<path d="M129.632 153.456C129.736 162.234 122.699 169.433 113.921 169.522C105.143 169.625 97.9436 162.588 97.8551 153.81C97.7519 145.032 104.804 137.833 113.567 137.744C122.344 137.641 129.544 144.678 129.632 153.456Z" fill="#EE8B4A"/>
<path d="M158.474 153.81C158.577 162.588 151.526 169.772 142.763 169.861C134 169.964 126.785 162.927 126.697 154.149C126.594 145.372 133.645 138.172 142.423 138.084C151.201 137.981 158.4 145.018 158.474 153.81" fill="#E78244"/>
<path d="M190.266 153.456C190.369 162.234 183.332 169.433 174.539 169.522C165.776 169.625 158.577 162.588 158.474 153.81C158.4 145.018 165.437 137.833 174.215 137.744C182.978 137.641 190.177 144.678 190.266 153.456Z" fill="#E78244"/>
<path d="M218.266 144.132C218.355 152.91 211.333 160.109 202.555 160.198C193.762 160.286 186.563 153.264 186.474 144.472C186.386 135.694 193.423 128.509 202.201 128.406C210.979 128.317 218.178 135.354 218.266 144.132Z" fill="#E78244"/>
<path d="M249.999 126.341C250.088 136.136 242.239 144.177 232.429 144.28C222.633 144.383 214.593 136.535 214.475 126.724C214.386 116.914 222.249 108.888 232.045 108.785C241.856 108.667 249.881 116.545 249.999 126.341Z" fill="#E78244"/>
<path d="M151.555 79.1322C151.555 80.5042 150.434 81.5959 149.076 81.5959C147.704 81.5959 146.598 80.5042 146.598 79.1322C146.598 77.7602 147.704 76.6538 149.076 76.6538C150.434 76.6538 151.555 77.7602 151.555 79.1322Z" fill="#C66C3C"/>
<path d="M188.953 108.785C188.953 110.142 187.847 111.249 186.475 111.249C185.118 111.249 184.011 110.142 184.011 108.785C184.011 107.413 185.118 106.307 186.475 106.307C187.847 106.307 188.953 107.413 188.953 108.785Z" fill="#C66C3C"/>
<path d="M211.082 90.9048C211.082 92.2768 209.975 93.3832 208.603 93.3832C207.246 93.3832 206.125 92.2768 206.125 90.9048C206.125 89.5475 207.246 88.4263 208.603 88.4263C209.975 88.4263 211.082 89.5475 211.082 90.9048Z" fill="#C66C3C"/>
<path d="M88.7825 117.017C88.7825 118.374 87.6759 119.481 86.3039 119.481C84.9467 119.481 83.8403 118.374 83.8403 117.017C83.8403 115.645 84.9467 114.538 86.3039 114.538C87.6759 114.538 88.7825 115.645 88.7825 117.017Z" fill="#C66C3C"/>
<path d="M43.6399 98.8268C43.6399 100.199 42.5336 101.305 41.1763 101.305C39.8043 101.305 38.6978 100.199 38.6978 98.8268C38.6978 97.4696 39.8043 96.3484 41.1763 96.3484C42.5336 96.3484 43.6399 97.4696 43.6399 98.8268Z" fill="#C66C3C"/>
<path d="M93.7248 76.6536C93.7248 78.0256 92.6183 79.132 91.2463 79.132C89.889 79.132 88.7827 78.0256 88.7827 76.6536C88.7827 75.2964 89.889 74.1899 91.2463 74.1899C92.6183 74.1899 93.7248 75.2964 93.7248 76.6536Z" fill="#C66C3C"/>
</svg>
